<svg width="25" height="24" viewBox="0 0 25 24" xmlns="http://www.w3.org/2000/svg">
<path d="M1.2476 13.5991L3.43493 11.4118C3.63684 11.2099 3.93637 11.1149 4.23778 11.1904V1L24.4782 1.00002V1.55167V20.1007L24.4783 20.9464H13.2459V23.5H13.2283L9.8837 23.2303C9.71999 23.1976 9.56958 23.1171 9.45155 22.9991L7.3989 20.9464H4.23768V20.1007V17.7853C2.38419 15.9319 1.4097 14.9573 1.24751 14.7951C0.917532 14.4652 0.917347 13.9294 1.2476 13.5991ZM22.7868 19.255V2.70896H5.92917V12.71C6.14708 12.9279 12.2623 19.0426 12.4748 19.255L22.7868 19.255ZM10.4665 21.622L11.7057 21.8699L11.4578 20.63L6.22077 15.3936L5.22936 16.3849L10.4665 21.622ZM4.03335 15.189L5.02466 14.1976L4.48549 13.6585L4.48453 13.6575L4.03294 13.2059L3.04162 14.1971L4.03335 15.189Z" stroke-width="0.4"/>
<path d="M10.6957 6H19.5V7.8H10.6957V6Z"/>
<path d="M8.82617 9.69998H19.5001V11.5H8.82617V9.69998Z"/>
<path d="M10.8262 13.5H19.5001V15.3H10.8262V13.5Z"/>
</svg>
