<svg width="50" height="50" viewBox="0 0 50 50" fill="none" xmlns="http://www.w3.org/2000/svg">
<g clip-path="url(#clip0_1_977)">
<path d="M49.1665 15.0003H44.234H40.7657H36.6665V6.66699C36.6665 6.20678 36.2934 5.83365 35.8332 5.83365H30.8332V0.833653C30.8331 0.373444 30.46 0.000423204 29.9997 0.00052737C29.7787 0.00052737 29.567 0.0883399 29.4107 0.244486L27.4999 2.15532L25.589 0.244486C25.2636 -0.0808268 24.7361 -0.0808268 24.4107 0.244486L22.4999 2.15532L20.589 0.244486C20.2635 -0.080931 19.7359 -0.0808268 19.4105 0.244694C19.2544 0.400944 19.1665 0.612715 19.1665 0.833653V5.83365H14.1665C13.7063 5.83365 13.3332 6.20678 13.3332 6.66699V15.0003H9.51154H5.48821H0.833211C0.373003 15.0003 -0.00012207 15.3734 -0.00012207 15.8337V49.167C-0.00012207 49.6272 0.373003 50.0003 0.833211 50.0003H49.1665C49.6268 50.0003 49.9999 49.6272 49.9999 49.167V15.8337C49.9999 15.3734 49.6268 15.0003 49.1665 15.0003ZM13.3332 48.3337H1.66654V16.667H13.3332V48.3337ZM20.8332 2.84532L21.9107 3.92282C22.2361 4.24813 22.7636 4.24813 23.089 3.92282L24.9999 2.01199L26.9107 3.92282C27.2361 4.24813 27.7636 4.24813 28.089 3.92282L29.1665 2.84532V5.83365H20.8332V2.84532ZM20.8332 48.3337H18.3332V43.3337H20.8332V48.3337ZM18.3849 41.667C18.8443 38.0139 22.178 35.4248 25.8311 35.8841C28.8535 36.2641 31.2339 38.6445 31.614 41.667H18.3849ZM24.1665 48.3337H22.4999V43.3337H24.1665V48.3337ZM27.4999 48.3337H25.8332V43.3337H27.4999V48.3337ZM31.6665 48.3337H29.1665V43.3337H31.6665V48.3337ZM34.9999 48.3337H33.3332V42.5003C33.3332 37.8979 29.6023 34.167 24.9999 34.167C20.3975 34.167 16.6665 37.8979 16.6665 42.5003V48.3337H14.9999V7.50032H34.9999V48.3337ZM48.3332 48.3337H36.6665V16.667H48.3332V48.3337Z" fill="#E3AA55"/>
<path d="M19.1665 10C18.7063 10 18.3331 10.3731 18.3331 10.8333V12.5C18.3331 12.9602 18.7063 13.3333 19.1665 13.3333C19.6267 13.3333 19.9998 12.9602 19.9998 12.5V10.8333C19.9998 10.3731 19.6267 10 19.1665 10Z" fill="#E3AA55"/>
<path d="M22.4999 10C22.0397 10 21.6666 10.3731 21.6666 10.8333V12.5C21.6666 12.9602 22.0397 13.3333 22.4999 13.3333C22.9601 13.3333 23.3332 12.9602 23.3332 12.5V10.8333C23.3332 10.3731 22.9601 10 22.4999 10Z" fill="#E3AA55"/>
<path d="M27.4998 10C27.0396 10 26.6665 10.3731 26.6665 10.8333V12.5C26.6665 12.9602 27.0396 13.3333 27.4998 13.3333C27.96 13.3333 28.3332 12.9602 28.3332 12.5V10.8333C28.3332 10.3731 27.96 10 27.4998 10Z" fill="#E3AA55"/>
<path d="M30.8332 10C30.3729 10 29.9998 10.3731 29.9998 10.8333V12.5C29.9998 12.9602 30.3729 13.3333 30.8332 13.3333C31.2934 13.3333 31.6665 12.9602 31.6665 12.5V10.8333C31.6665 10.3731 31.2934 10 30.8332 10Z" fill="#E3AA55"/>
<path d="M19.1665 15.833C18.7063 15.833 18.3331 16.2061 18.3331 16.6663V18.333C18.3331 18.7932 18.7063 19.1663 19.1665 19.1663C19.6267 19.1663 19.9998 18.7932 19.9998 18.333V16.6663C19.9998 16.2061 19.6267 15.833 19.1665 15.833Z" fill="#E3AA55"/>
<path d="M22.4999 15.833C22.0397 15.833 21.6666 16.2061 21.6666 16.6663V18.333C21.6666 18.7932 22.0397 19.1663 22.4999 19.1663C22.9601 19.1663 23.3332 18.7932 23.3332 18.333V16.6663C23.3332 16.2061 22.9601 15.833 22.4999 15.833Z" fill="#E3AA55"/>
<path d="M27.4998 15.833C27.0396 15.833 26.6665 16.2061 26.6665 16.6663V18.333C26.6665 18.7932 27.0396 19.1663 27.4998 19.1663C27.96 19.1663 28.3332 18.7932 28.3332 18.333V16.6663C28.3332 16.2061 27.96 15.833 27.4998 15.833Z" fill="#E3AA55"/>
<path d="M30.8332 15.833C30.3729 15.833 29.9998 16.2061 29.9998 16.6663V18.333C29.9998 18.7932 30.3729 19.1663 30.8332 19.1663C31.2934 19.1663 31.6665 18.7932 31.6665 18.333V16.6663C31.6665 16.2061 31.2934 15.833 30.8332 15.833Z" fill="#E3AA55"/>
<path d="M19.1665 21.6665C18.7063 21.6665 18.3331 22.0396 18.3331 22.4998V24.1665C18.3331 24.6267 18.7063 24.9998 19.1665 24.9998C19.6267 24.9998 19.9998 24.6267 19.9998 24.1665V22.4998C19.9998 22.0396 19.6267 21.6665 19.1665 21.6665Z" fill="#E3AA55"/>
<path d="M22.4999 21.6665C22.0397 21.6665 21.6666 22.0396 21.6666 22.4998V24.1665C21.6666 24.6267 22.0397 24.9998 22.4999 24.9998C22.9601 24.9998 23.3332 24.6267 23.3332 24.1665V22.4998C23.3332 22.0396 22.9601 21.6665 22.4999 21.6665Z" fill="#E3AA55"/>
<path d="M27.4998 21.6665C27.0396 21.6665 26.6665 22.0396 26.6665 22.4998V24.1665C26.6665 24.6267 27.0396 24.9998 27.4998 24.9998C27.96 24.9998 28.3332 24.6267 28.3332 24.1665V22.4998C28.3332 22.0396 27.96 21.6665 27.4998 21.6665Z" fill="#E3AA55"/>
<path d="M30.8332 21.6665C30.3729 21.6665 29.9998 22.0396 29.9998 22.4998V24.1665C29.9998 24.6267 30.3729 24.9998 30.8332 24.9998C31.2934 24.9998 31.6665 24.6267 31.6665 24.1665V22.4998C31.6665 22.0396 31.2934 21.6665 30.8332 21.6665Z" fill="#E3AA55"/>
<path d="M19.1665 27.5C18.7063 27.5 18.3331 27.8731 18.3331 28.3333V30C18.3331 30.4602 18.7063 30.8333 19.1665 30.8333C19.6267 30.8333 19.9998 30.4602 19.9998 30V28.3333C19.9998 27.8731 19.6267 27.5 19.1665 27.5Z" fill="#E3AA55"/>
<path d="M22.4999 27.5C22.0397 27.5 21.6666 27.8731 21.6666 28.3333V30C21.6666 30.4602 22.0397 30.8333 22.4999 30.8333C22.9601 30.8333 23.3332 30.4602 23.3332 30V28.3333C23.3332 27.8731 22.9601 27.5 22.4999 27.5Z" fill="#E3AA55"/>
<path d="M27.4998 27.5C27.0396 27.5 26.6665 27.8731 26.6665 28.3333V30C26.6665 30.4602 27.0396 30.8333 27.4998 30.8333C27.96 30.8333 28.3332 30.4602 28.3332 30V28.3333C28.3332 27.8731 27.96 27.5 27.4998 27.5Z" fill="#E3AA55"/>
<path d="M30.8332 27.5C30.3729 27.5 29.9998 27.8731 29.9998 28.3333V30C29.9998 30.4602 30.3729 30.8333 30.8332 30.8333C31.2934 30.8333 31.6665 30.4602 31.6665 30V28.3333C31.6665 27.8731 31.2934 27.5 30.8332 27.5Z" fill="#E3AA55"/>
<path d="M40.8332 19.1665C40.373 19.1665 39.9999 19.5396 39.9999 19.9998V21.6665C39.9999 22.1267 40.373 22.4998 40.8332 22.4998C41.2934 22.4998 41.6665 22.1267 41.6665 21.6665V19.9998C41.6665 19.5396 41.2934 19.1665 40.8332 19.1665Z" fill="#E3AA55"/>
<path d="M44.1665 19.1665C43.7063 19.1665 43.3331 19.5396 43.3331 19.9998V21.6665C43.3331 22.1267 43.7063 22.4998 44.1665 22.4998C44.6267 22.4998 44.9998 22.1267 44.9998 21.6665V19.9998C44.9998 19.5396 44.6267 19.1665 44.1665 19.1665Z" fill="#E3AA55"/>
<path d="M40.8332 25C40.373 25 39.9999 25.3731 39.9999 25.8333V27.5C39.9999 27.9602 40.373 28.3333 40.8332 28.3333C41.2934 28.3333 41.6665 27.9602 41.6665 27.5V25.8333C41.6665 25.3731 41.2934 25 40.8332 25Z" fill="#E3AA55"/>
<path d="M44.1665 25C43.7063 25 43.3331 25.3731 43.3331 25.8333V27.5C43.3331 27.9602 43.7063 28.3333 44.1665 28.3333C44.6267 28.3333 44.9998 27.9602 44.9998 27.5V25.8333C44.9998 25.3731 44.6267 25 44.1665 25Z" fill="#E3AA55"/>
<path d="M40.8332 30.833C40.373 30.833 39.9999 31.2061 39.9999 31.6663V33.333C39.9999 33.7932 40.373 34.1663 40.8332 34.1663C41.2934 34.1663 41.6665 33.7932 41.6665 33.333V31.6663C41.6665 31.2061 41.2934 30.833 40.8332 30.833Z" fill="#E3AA55"/>
<path d="M44.1665 30.833C43.7063 30.833 43.3331 31.2061 43.3331 31.6663V33.333C43.3331 33.7932 43.7063 34.1663 44.1665 34.1663C44.6267 34.1663 44.9998 33.7932 44.9998 33.333V31.6663C44.9998 31.2061 44.6267 30.833 44.1665 30.833Z" fill="#E3AA55"/>
<path d="M40.8332 36.6665C40.373 36.6665 39.9999 37.0396 39.9999 37.4998V39.1665C39.9999 39.6267 40.373 39.9998 40.8332 39.9998C41.2934 39.9998 41.6665 39.6267 41.6665 39.1665V37.4998C41.6665 37.0396 41.2934 36.6665 40.8332 36.6665Z" fill="#E3AA55"/>
<path d="M44.1665 36.6665C43.7063 36.6665 43.3331 37.0396 43.3331 37.4998V39.1665C43.3331 39.6267 43.7063 39.9998 44.1665 39.9998C44.6267 39.9998 44.9998 39.6267 44.9998 39.1665V37.4998C44.9998 37.0396 44.6267 36.6665 44.1665 36.6665Z" fill="#E3AA55"/>
<path d="M40.8332 42.5C40.373 42.5 39.9999 42.8731 39.9999 43.3333V45C39.9999 45.4602 40.373 45.8333 40.8332 45.8333C41.2934 45.8333 41.6665 45.4602 41.6665 45V43.3333C41.6665 42.8731 41.2934 42.5 40.8332 42.5Z" fill="#E3AA55"/>
<path d="M44.1665 42.5C43.7063 42.5 43.3331 42.8731 43.3331 43.3333V45C43.3331 45.4602 43.7063 45.8333 44.1665 45.8333C44.6267 45.8333 44.9998 45.4602 44.9998 45V43.3333C44.9998 42.8731 44.6267 42.5 44.1665 42.5Z" fill="#E3AA55"/>
<path d="M5.83315 19.1665C5.37294 19.1665 4.99982 19.5396 4.99982 19.9998V21.6665C4.99982 22.1267 5.37294 22.4998 5.83315 22.4998C6.29336 22.4998 6.66648 22.1267 6.66648 21.6665V19.9998C6.66648 19.5396 6.29336 19.1665 5.83315 19.1665Z" fill="#E3AA55"/>
<path d="M9.16658 19.1665C8.70638 19.1665 8.33325 19.5396 8.33325 19.9998V21.6665C8.33325 22.1267 8.70638 22.4998 9.16658 22.4998C9.62679 22.4998 9.99992 22.1267 9.99992 21.6665V19.9998C9.99992 19.5396 9.62679 19.1665 9.16658 19.1665Z" fill="#E3AA55"/>
<path d="M5.83315 25C5.37294 25 4.99982 25.3731 4.99982 25.8333V27.5C4.99982 27.9602 5.37294 28.3333 5.83315 28.3333C6.29336 28.3333 6.66648 27.9602 6.66648 27.5V25.8333C6.66648 25.3731 6.29336 25 5.83315 25Z" fill="#E3AA55"/>
<path d="M9.16658 25C8.70638 25 8.33325 25.3731 8.33325 25.8333V27.5C8.33325 27.9602 8.70638 28.3333 9.16658 28.3333C9.62679 28.3333 9.99992 27.9602 9.99992 27.5V25.8333C9.99992 25.3731 9.62679 25 9.16658 25Z" fill="#E3AA55"/>
<path d="M5.83315 30.833C5.37294 30.833 4.99982 31.2061 4.99982 31.6663V33.333C4.99982 33.7932 5.37294 34.1663 5.83315 34.1663C6.29336 34.1663 6.66648 33.7932 6.66648 33.333V31.6663C6.66648 31.2061 6.29336 30.833 5.83315 30.833Z" fill="#E3AA55"/>
<path d="M9.16658 30.833C8.70638 30.833 8.33325 31.2061 8.33325 31.6663V33.333C8.33325 33.7932 8.70638 34.1663 9.16658 34.1663C9.62679 34.1663 9.99992 33.7932 9.99992 33.333V31.6663C9.99992 31.2061 9.62679 30.833 9.16658 30.833Z" fill="#E3AA55"/>
<path d="M5.83315 36.6665C5.37294 36.6665 4.99982 37.0396 4.99982 37.4998V39.1665C4.99982 39.6267 5.37294 39.9998 5.83315 39.9998C6.29336 39.9998 6.66648 39.6267 6.66648 39.1665V37.4998C6.66648 37.0396 6.29336 36.6665 5.83315 36.6665Z" fill="#E3AA55"/>
<path d="M9.16658 36.6665C8.70638 36.6665 8.33325 37.0396 8.33325 37.4998V39.1665C8.33325 39.6267 8.70638 39.9998 9.16658 39.9998C9.62679 39.9998 9.99992 39.6267 9.99992 39.1665V37.4998C9.99992 37.0396 9.62679 36.6665 9.16658 36.6665Z" fill="#E3AA55"/>
<path d="M5.83315 42.5C5.37294 42.5 4.99982 42.8731 4.99982 43.3333V45C4.99982 45.4602 5.37294 45.8333 5.83315 45.8333C6.29336 45.8333 6.66648 45.4602 6.66648 45V43.3333C6.66648 42.8731 6.29336 42.5 5.83315 42.5Z" fill="#E3AA55"/>
<path d="M9.16658 42.5C8.70638 42.5 8.33325 42.8731 8.33325 43.3333V45C8.33325 45.4602 8.70638 45.8333 9.16658 45.8333C9.62679 45.8333 9.99992 45.4602 9.99992 45V43.3333C9.99992 42.8731 9.62679 42.5 9.16658 42.5Z" fill="#E3AA55"/>
</g>
<defs>
<clipPath id="clip0_1_977">
<rect width="50" height="50" fill="white"/>
</clipPath>
</defs>
</svg>
