<svg width="52" height="47" viewBox="0 0 52 47" fill="none" xmlns="http://www.w3.org/2000/svg">
<path d="M51.1652 7.34245H36.141V4.23244C36.5862 4.39938 37.033 4.57883 37.4815 4.77081C37.6843 4.85435 37.9118 4.85472 38.1148 4.77185C38.3179 4.68898 38.4802 4.52952 38.5666 4.32795C38.653 4.12639 38.6566 3.89891 38.5766 3.6947C38.4967 3.49049 38.3395 3.32595 38.1392 3.23667C34.3592 1.54712 30.2653 0.673828 26.1249 0.673828C21.9844 0.673828 17.8906 1.54712 14.1105 3.23667C14.0083 3.27881 13.9154 3.34085 13.8373 3.41919C13.7592 3.49753 13.6975 3.59061 13.6557 3.69302C13.6139 3.79544 13.5928 3.90513 13.5938 4.01574C13.5948 4.12635 13.6177 4.23566 13.6613 4.33732C13.7049 4.43899 13.7683 4.53097 13.8477 4.60794C13.9272 4.6849 14.0211 4.7453 14.1241 4.78563C14.2271 4.82597 14.3371 4.84543 14.4477 4.84288C14.5583 4.84034 14.6672 4.81584 14.7683 4.77081C15.2134 4.57939 15.6602 4.39994 16.1087 4.23244V7.34245H1.08456C0.863185 7.34245 0.650882 7.43039 0.494349 7.58692C0.337817 7.74346 0.249878 7.95576 0.249878 8.17713V29.0441C0.249878 29.2654 0.337817 29.4777 0.494349 29.6343C0.650882 29.7908 0.863185 29.8787 1.08456 29.8787H1.91923V44.0683C1.92121 44.7318 2.18567 45.3675 2.65484 45.8367C3.124 46.3059 3.75976 46.5703 4.42326 46.5723H47.8265C48.49 46.5703 49.1258 46.3059 49.5949 45.8367C50.0641 45.3675 50.3285 44.7318 50.3305 44.0683V29.8787H51.1652C51.3866 29.8787 51.5989 29.7908 51.7554 29.6343C51.9119 29.4777 51.9999 29.2654 51.9999 29.0441V8.17713C51.9999 7.95576 51.9119 7.74346 51.7554 7.58692C51.5989 7.43039 51.3866 7.34245 51.1652 7.34245ZM17.7122 3.67822C23.1812 1.90953 29.0686 1.90953 34.5376 3.67822C34.4939 3.78116 34.4714 3.89189 34.4717 4.00374V7.34245H17.7781V4.00374C17.7783 3.89189 17.7559 3.78116 17.7122 3.67822ZM48.6612 44.0683C48.6612 44.2896 48.5732 44.5019 48.4167 44.6585C48.2602 44.815 48.0479 44.9029 47.8265 44.9029H4.42326C4.20189 44.9029 3.98959 44.815 3.83306 44.6585C3.67653 44.5019 3.58859 44.2896 3.58859 44.0683V29.8787H22.7862V33.2174C22.7862 33.4388 22.8741 33.6511 23.0306 33.8077C23.1872 33.9642 23.3995 34.0521 23.6208 34.0521H28.6289C28.8503 34.0521 29.0626 33.9642 29.2191 33.8077C29.3756 33.6511 29.4636 33.4388 29.4636 33.2174V29.8787H48.6612V44.0683ZM24.4555 25.7054H27.7942V32.3828H24.4555V25.7054ZM50.3305 28.2094H29.4636V24.8707C29.4636 24.6493 29.3756 24.437 29.2191 24.2805C29.0626 24.1239 28.8503 24.036 28.6289 24.036H23.6208C23.3995 24.036 23.1872 24.1239 23.0306 24.2805C22.8741 24.437 22.7862 24.6493 22.7862 24.8707V28.2094H1.91923V9.01181H50.3305V28.2094Z" fill="#E3AA55"/>
</svg>
