<svg width="24" height="27" viewBox="0 0 24 27" xmlns="http://www.w3.org/2000/svg">
<path d="M0.999966 26L3.45044 6.49155H8.10508V4.87046C8.10508 2.73628 9.85231 1 12 1C14.1476 1 15.8949 2.73628 15.8949 4.87046V6.49155L20.5 6.5L23 26C23 26 22.475 26 22.2629 26H1.73706C1.52498 26 0.999966 26 0.999966 26ZM14.4208 4.87046C14.4208 3.54399 13.3348 2.46484 12 2.46484C10.6651 2.46484 9.57917 3.54399 9.57917 4.87046V6.49155H14.4207L14.4208 4.87046ZM21.4235 24.5352L19.2474 7.9564H15.8949V9.57749C15.8949 9.98198 15.5649 10.3099 15.1578 10.3099C14.7508 10.3099 14.4208 9.98198 14.4208 9.57749V7.9564H9.57922V9.57749C9.57922 9.98198 9.24922 10.3099 8.84217 10.3099C8.43512 10.3099 8.10513 9.98198 8.10513 9.57749V7.9564H4.7526L2.57645 24.5352H21.4235Z" stroke-width="0.5"/>
</svg>
