<svg width="15" height="15" viewBox="0 0 15 15" xmlns="http://www.w3.org/2000/svg">
<path d="M0.293014 1.70711C-0.0975102 1.31658 -0.0975099 0.683417 0.293014 0.292893C0.683539 -0.0976311 1.3167 -0.0976311 1.70723 0.292893L13.728 12.3137C14.1186 12.7042 14.1186 13.3374 13.728 13.7279C13.3375 14.1184 12.7044 14.1184 12.3138 13.7279L0.293014 1.70711Z"/>
<path d="M13.7279 1.70711C14.1184 1.31658 14.1184 0.683417 13.7279 0.292893C13.3374 -0.0976311 12.7042 -0.0976311 12.3137 0.292893L0.292893 12.3137C-0.0976312 12.7042 -0.0976309 13.3374 0.292893 13.7279C0.683418 14.1184 1.31658 14.1184 1.70711 13.7279L13.7279 1.70711Z"/>
</svg>
