<svg width="42" height="57" viewBox="0 0 42 57" fill="none" xmlns="http://www.w3.org/2000/svg">
<path d="M37.2202 34.2123C37.2148 34.21 37.2095 34.2078 37.2042 34.2057L26.1877 29.8642L26.1864 28.2616C28.0334 27.0022 29.2521 24.8594 29.2521 22.4319V20.4198C31.2389 20.2665 32.684 18.6228 32.684 16.6967C32.684 15.4613 32.0822 14.2585 30.9679 13.5456V11.4662H29.3267V12.9813C29.2907 12.9779 29.2547 12.9749 29.2185 12.9723C29.0802 12.0928 28.5602 11.3678 27.8571 10.9502L27.8543 10.9485L26.3342 10.0489C25.4837 9.54555 24.4441 9.51025 23.553 9.98101C18.7854 12.4998 12.3149 15.7326 9.49698 11.0966C8.70274 9.79006 8.53643 8.21045 9.0405 6.76279C9.69612 4.88012 11.4995 2.96226 13.6773 2.93932C15.6259 2.91872 17.5045 2.61699 19.2613 2.04246C23.4776 0.663053 25.5254 3.50082 25.6078 3.61817C25.7613 3.84297 26.0132 3.97669 26.2817 3.97669C26.2857 3.97669 26.2899 3.97669 26.294 3.97658C27.9621 3.95108 29.3267 5.31657 29.3267 7.01643V11.4662C29.78 11.4662 30.9679 11.4662 30.9679 11.4662V7.01643C30.9679 4.51436 29.0626 2.49273 26.6797 2.31837C24.9425 0.330253 22.0765 -0.63274 18.7591 0.452395C17.1594 0.975589 15.4439 1.25038 13.6601 1.2692C11.0319 1.29692 8.49594 3.32657 7.49348 6.20486C6.82222 8.1324 7.04379 10.2356 8.10118 11.9751C8.67473 12.9188 9.45365 13.6837 10.3637 14.2263C9.73058 14.8976 9.36054 15.7717 9.36054 16.6968C9.36054 18.6203 10.8027 20.2666 12.7926 20.4198V22.4319C12.7926 24.837 13.9889 26.9626 15.8074 28.2264V29.8292C14.1879 30.4729 6.41717 33.5611 4.79345 34.2065C4.78886 34.2083 4.78426 34.2102 4.77967 34.212C2.47758 35.1762 -0.00012207 37.9389 -0.00012207 41.7262V54.7164C-0.00012207 55.9755 1.0065 56.9999 2.24398 56.9999L22.9146 57L19.0851 55.3298H8.22875C8.22875 54.4798 8.22875 41.4184 8.22875 40.8733C8.22875 40.4121 7.86145 40.0382 7.40814 40.0382C6.95484 40.0382 6.58753 40.4121 6.58753 40.8733V44.496H1.6411V41.7264C1.6411 38.5072 3.88542 36.3959 5.39808 35.7593L12.25 33.0362L16.388 36.5281C17.0182 37.0602 17.9569 37.0277 18.5492 36.4106V43.299C18.5492 44.0515 19.1509 44.6637 19.8904 44.6637H22.1068C22.8464 44.6637 23.4479 44.0514 23.4479 43.299V36.4076C24.0394 37.0271 24.9798 37.0617 25.6117 36.5282L29.7315 33.0518L36.6032 35.7599C38.4707 36.5462 40.3587 38.8459 40.3587 41.7264V44.4961H35.4122V40.8734C35.4122 40.4122 35.0449 40.0383 34.5916 40.0383C34.1383 40.0383 33.771 40.4122 33.771 40.8734V55.3299L19.0851 55.3298L22.9146 57H39.7559C40.9933 57 41.9999 55.9757 41.9999 54.7165C41.9999 53.4269 41.9999 43.0112 41.9999 41.7263C41.9998 38.4809 40.0343 35.3909 37.2202 34.2123ZM31.0427 16.6968C31.0427 17.716 30.3144 18.5952 29.254 18.7402C29.2533 18.1137 29.2522 16.9298 29.252 14.655C30.3262 14.8042 31.0427 15.6886 31.0427 16.6968ZM12.7905 18.7402C11.7288 18.5953 11.0017 17.7154 11.0017 16.6968C11.0017 15.9889 11.4287 15.3255 12.109 14.9476C12.2187 14.9749 12.5594 15.048 12.7923 15.0805C12.7921 17.0795 12.7911 18.1536 12.7905 18.7402ZM6.58753 46.1662V55.33H2.24387C1.91147 55.33 1.64099 55.0549 1.64099 54.7166V46.1662H6.58753ZM14.4338 15.1219C17.1998 14.9193 20.4055 13.4583 22.9346 12.1758C22.9346 12.1758 23.4958 11.8929 24.301 11.4675C24.3037 11.4662 24.3063 11.4647 24.3089 11.4634C24.6782 11.2688 25.1302 11.2686 25.509 11.4928L27.0289 12.3923C27.3861 12.6038 27.5999 12.9935 27.6107 13.3914V19.07L26.6093 19.6465C25.8991 20.0551 25.4581 20.8247 25.4581 21.6548V22.3724C25.4581 22.7237 25.1772 23.0096 24.8319 23.0096H24.2734C24.0323 23.0096 23.803 22.917 23.6277 22.7487C23.1466 22.287 22.5175 22.0328 21.8563 22.0328H20.1886C19.5274 22.0328 18.8982 22.287 18.4171 22.7487C18.2416 22.9169 18.0124 23.0095 17.7715 23.0095H17.2129C16.8677 23.0095 16.5867 22.7237 16.5867 22.3723V21.6547C16.5867 20.8247 16.1457 20.0551 15.4356 19.6463L14.4341 19.0699L14.4338 15.1219ZM14.4338 22.432V20.9887L14.6273 21.1C14.8235 21.2129 14.9453 21.4255 14.9453 21.6547V22.3723C14.9453 23.6446 15.9624 24.6797 17.2127 24.6797H17.7713C18.4325 24.6797 19.0617 24.4255 19.5427 23.9638C19.7182 23.7956 19.9474 23.7029 20.1883 23.7029H21.8561C22.097 23.7029 22.3263 23.7956 22.5016 23.9636C22.9826 24.4252 23.6117 24.6795 24.2731 24.6795H24.8317C26.082 24.6795 27.0991 23.6445 27.0991 22.3722V21.6546C27.0991 21.4254 27.2209 21.2128 27.4171 21.1L27.6106 20.9887V22.432C27.6106 25.3866 25.2432 27.7748 22.3602 27.7748H19.6841C16.7818 27.7747 14.4338 25.3685 14.4338 22.432ZM17.3979 35.2108L13.9978 32.3415L16.354 31.405L18.6421 33.3357C18.5825 33.4256 17.4461 35.1384 17.3979 35.2108ZM21.8065 42.9936H20.1903V34.8271H21.8065V42.9936ZM22.2788 32.0763C21.9492 32.3545 21.749 32.7602 21.7082 33.1571H20.2914C20.2512 32.7585 20.0516 32.3554 19.7207 32.0763L17.4297 30.143C17.437 30.0943 17.4486 29.9693 17.4486 29.8829V29.0655C18.1515 29.3107 18.9308 29.445 19.6843 29.445H22.3605C23.0939 29.445 23.859 29.3169 24.5459 29.0827L24.5466 29.8902L24.5467 29.8934C24.5471 29.9791 24.5539 30.0635 24.5667 30.146L22.2788 32.0763ZM24.6016 35.2108C24.5536 35.1383 23.4172 33.4256 23.3574 33.3357L25.6161 31.43C27.9555 32.3519 27.3423 32.1103 27.9787 32.361L24.6016 35.2108ZM40.3585 54.7166C40.3585 55.0549 40.0881 55.33 39.7558 55.33H35.4121V46.1662H40.3585V54.7166Z" fill="#E3AA55"/>
</svg>
