<svg width="30" height="19" viewBox="0 0 30 19" fill="none" xmlns="http://www.w3.org/2000/svg">
<path d="M26.9889 5.75911e-05C25.6027 5.75911e-05 24.475 1.12779 24.475 2.51402C24.475 3.35704 24.8924 4.10383 25.5311 4.56015L23.8288 6.33158C23.0534 7.13842 22.0102 7.5828 20.8912 7.5828C19.7721 7.5828 18.7289 7.13842 17.9536 6.33158L16.2561 4.56504C16.8986 4.10919 17.3191 3.36004 17.3191 2.51396C17.3191 1.12779 16.1914 0 14.8052 0C13.419 0 12.2912 1.12773 12.2912 2.51396C12.2912 3.32765 12.6801 4.05186 13.2813 4.51169L11.5325 6.33158C10.7572 7.13842 9.71387 7.5828 8.59489 7.5828C7.47591 7.5828 6.43266 7.13848 5.65728 6.33158L3.96185 4.56723C4.60607 4.11155 5.02787 3.36136 5.02787 2.51396C5.02787 1.12779 3.90014 0 2.51391 0C1.12773 0.000115245 0 1.12791 0 2.51414C0 3.5729 0.658224 4.48022 1.58676 4.85016V10.7844H27.8994V4.85667C28.8367 4.49106 29.5028 3.57918 29.5028 2.51408C29.5028 1.12785 28.3751 5.75911e-05 26.9889 5.75911e-05Z" fill="url(#paint0_linear_1_458)"/>
<path d="M1.58681 10.4999V17.5705C1.58681 18.0455 1.97185 18.4305 2.44678 18.4305H27.0395C27.5144 18.4305 27.8994 18.0455 27.8994 17.5705V10.4999H1.58681Z" fill="url(#paint1_linear_1_458)"/>
<defs>
<linearGradient id="paint0_linear_1_458" x1="0.744337" y1="12.8165" x2="23.826" y2="13.0087" gradientUnits="userSpaceOnUse">
<stop stop-color="#F8C791"/>
<stop offset="0.515625" stop-color="#E2AA57"/>
<stop offset="1" stop-color="#E4AB55"/>
</linearGradient>
<linearGradient id="paint1_linear_1_458" x1="0.744337" y1="12.8165" x2="23.826" y2="13.0087" gradientUnits="userSpaceOnUse">
<stop stop-color="#F8C791"/>
<stop offset="0.515625" stop-color="#E2AA57"/>
<stop offset="1" stop-color="#E4AB55"/>
</linearGradient>
</defs>
</svg>
