<svg width="10" height="10" viewBox="0 0 10 10" xmlns="http://www.w3.org/2000/svg">
<path fill-rule="evenodd" clip-rule="evenodd" d="M2.53745 8.49857C2.59531 8.48211 2.65596 8.47783 2.71556 8.48598C2.77516 8.49414 2.83242 8.51456 2.88373 8.54595C3.74803 9.06089 4.7707 9.24229 5.75938 9.05604C6.74806 8.86979 7.63462 8.32873 8.25232 7.53462C8.87002 6.7405 9.1763 5.74806 9.11354 4.74395C9.05078 3.73984 8.62331 2.79326 7.91154 2.08224C7.19976 1.37122 6.25272 0.944759 5.24855 0.883069C4.24437 0.821379 3.25226 1.12871 2.4588 1.74726C1.66534 2.3658 1.12522 3.25294 0.940028 4.24182C0.754832 5.2307 0.937323 6.25317 1.45318 7.11692C1.48446 7.16808 1.50478 7.22517 1.51286 7.28459C1.52095 7.34401 1.51661 7.40446 1.50013 7.46211C1.37905 7.89056 1.0869 8.9131 1.0869 8.9131C1.0869 8.9131 2.10944 8.62095 2.53745 8.49857ZM0.699749 7.55102C0.0782517 6.50337 -0.139413 5.26486 0.0876272 4.06808C0.314668 2.87129 0.970795 1.79855 1.9328 1.0513C2.89481 0.304052 4.09652 -0.0663094 5.31227 0.0097663C6.52802 0.085842 7.67418 0.603121 8.53553 1.46447C9.39688 2.32582 9.91416 3.47198 9.99023 4.68773C10.0663 5.90349 9.69595 7.10519 8.9487 8.0672C8.20144 9.0292 7.12871 9.68533 5.93192 9.91237C4.73514 10.1394 3.49663 9.92175 2.44898 9.30025C2.44898 9.30025 1.06277 9.69631 0.376292 9.8926C0.338999 9.90322 0.299548 9.90367 0.26202 9.89393C0.224491 9.88418 0.190248 9.86459 0.162831 9.83717C0.135414 9.80975 0.115819 9.77551 0.106073 9.73798C0.0963276 9.70045 0.0967847 9.661 0.107397 9.62371C0.303688 8.93723 0.699749 7.55102 0.699749 7.55102Z"/>
<path fill-rule="evenodd" clip-rule="evenodd" d="M2.60468 3.64915C2.67231 4.62251 3.08773 5.53909 3.7751 6.23157C4.46247 6.92404 5.37595 7.34624 6.34878 7.42107H6.34922C6.50454 7.43309 6.66063 7.41134 6.80674 7.3573C6.95286 7.30327 7.08555 7.21824 7.19568 7.10805L7.34741 6.95632C7.41904 6.88463 7.4593 6.78746 7.45936 6.68612V6.36397C7.45935 6.32358 7.4481 6.28399 7.42687 6.24963C7.40564 6.21527 7.37527 6.18749 7.33915 6.16942C7.11025 6.05508 6.61333 5.80661 6.36987 5.68488C6.32904 5.66447 6.28283 5.6574 6.23777 5.6647C6.19271 5.672 6.15109 5.69328 6.1188 5.72553C5.9975 5.84683 5.80577 6.03877 5.69708 6.14724C5.67179 6.17254 5.64064 6.19122 5.6064 6.20161C5.57216 6.21199 5.53589 6.21378 5.50079 6.2068L5.49884 6.20637C5.078 6.1222 4.69149 5.91535 4.38801 5.61187C4.08454 5.3084 3.87769 4.92189 3.79352 4.50105L3.79308 4.49909C3.78611 4.464 3.78789 4.42773 3.79828 4.39349C3.80867 4.35925 3.82734 4.3281 3.85264 4.3028C3.96111 4.19411 4.15306 4.00239 4.27435 3.88109C4.30661 3.84879 4.32789 3.80717 4.33519 3.76211C4.34248 3.71705 4.33542 3.67084 4.315 3.63002C4.19327 3.38656 3.94481 2.88963 3.83047 2.66074C3.81239 2.62462 3.78462 2.59424 3.75026 2.57301C3.7159 2.55178 3.67631 2.54054 3.63592 2.54053H3.36202C3.29698 2.54055 3.23267 2.55422 3.17325 2.58065C3.11383 2.60709 3.06061 2.6457 3.01705 2.694C2.97335 2.74269 2.92314 2.79834 2.87271 2.85442C2.7778 2.95975 2.70505 3.0831 2.65882 3.21714C2.61259 3.35117 2.59381 3.49314 2.6036 3.63458C2.60403 3.63937 2.60425 3.64415 2.60468 3.64915Z"/>
</svg>
