<svg width="88" height="116" viewBox="0 0 88 116" fill="none" xmlns="http://www.w3.org/2000/svg">
<path d="M32.2283 12.2824C38.8896 15.0506 43.6596 17.79 49.2833 22.7111C57.2838 30.4772 61.9369 37.801 64.8831 48.7963C66.6408 56.3603 67.1766 62.3768 65.972 69.9311C64.7003 77.2355 62.96 82.7906 59.3452 89.3837C55.4124 95.7942 51.697 100.004 45.7223 104.819C39.4296 109.451 34.2413 112.18 26.71 114.198C26.8439 114.698 26.9778 115.198 27.1117 115.698C34.8272 113.362 40.3334 110.816 46.5592 105.934C52.5339 101.119 56.4334 96.5919 60.2992 89.9316C64.165 83.2712 65.9054 77.7161 67.1101 70.1618C68.4319 62.0405 67.896 56.0239 66.1383 48.4599C62.9411 37.532 58.221 29.9582 49.9026 22.0095C44.2788 17.0884 39.5088 14.3491 32.5964 11.6481C32.3454 11.7153 32.1613 12.0325 32.2283 12.2824Z" fill="#E3AA55"/>
<path d="M57.9359 31.9041C52.2288 33.7011 46.8897 30.8464 42.923 27.0883C47.6594 27.694 51.0903 25.4355 55.576 30.1259C56.2789 30.7411 57.4003 29.905 56.8814 28.9727C53.0651 22.7637 54.8559 20.4091 53.2656 15.4785C53.1987 15.2286 53.1317 14.9787 52.9978 14.479C54.4707 15.9591 55.9436 17.4393 56.9144 19.054C59.81 22.8313 60.8981 27.8964 57.9359 31.9041ZM64.1123 43.9086C58.2545 44.139 53.6517 40.0157 50.4883 35.2388C54.6725 36.796 58.9403 35.6525 62.1205 41.4961C62.5724 42.1785 64.0787 41.7749 63.8109 40.7754C62.7563 37.8439 62.6558 35.4604 63.1745 32.3752C63.392 30.1743 63.9275 28.156 63.5759 25.8397C67.3084 30.7319 69.836 39.1609 64.1123 43.9086ZM67.092 57.0375C61.0835 55.7013 57.7862 50.4247 56.062 44.9943C59.761 47.7529 64.3635 47.8588 65.8534 54.4232C66.1212 55.4228 67.6275 55.0192 67.6777 54.2022C67.6273 51.0017 67.8448 48.8008 69.1166 45.5138C69.9031 43.4283 70.6897 41.3427 70.9071 39.1418C73.5183 44.8701 74.1547 53.2702 67.8452 56.8357C67.5941 56.9029 67.3431 56.9702 67.092 57.0375ZM66.8583 70.2239C61.5862 67.6191 59.5441 62.0061 59.0752 56.2394C62.1549 59.6996 66.2052 60.7569 66.3059 67.1579C66.2557 67.9749 67.9629 68.3209 67.9461 67.2541C69.2847 60.1996 72.2972 59.3924 74.3054 54.8368C74.4895 54.5197 74.4225 54.2698 74.6066 53.9526C74.8243 55.7691 75.1089 57.8355 74.8245 59.7866C74.2054 64.5056 72.2474 68.2442 67.5445 69.7722L66.8583 70.2239ZM63.3443 83.218C58.8085 79.3445 58.2726 73.3279 59.1929 67.7247C61.3353 71.7038 65.1514 73.8953 63.6119 80.2001C63.3107 81.0843 64.8338 81.7475 65.386 80.796C68.4987 74.3375 71.4611 74.3472 74.6743 70.2723C74.8584 69.9551 75.1095 69.8878 75.2936 69.5707C74.5072 75.6737 70.7251 83.6507 63.3443 83.218ZM56.7171 94.6357C53.3026 89.9261 54.0889 83.8231 56.4653 78.6332C57.4195 83.1985 60.6163 86.0916 57.5538 91.7332C57.2526 92.6174 58.5246 93.3479 58.8928 92.7135C63.5955 87.1681 66.7587 87.9275 70.4909 84.7849C70.7419 84.7176 70.926 84.4004 71.1101 84.0833C69.5037 90.1382 63.8135 97.0195 56.7171 94.6357ZM49.1488 22.2061C44.0275 25.1854 38.019 23.8492 33.182 20.8599C37.5837 20.2162 40.8806 17.4579 46.4206 21.0623C47.3746 21.6102 48.362 20.2743 47.6591 19.6591C45.4163 17.3139 44.1275 15.5166 43.0729 12.5852C42.2862 10.6533 41.6836 8.40429 40.1437 6.67423C41.9848 7.52008 43.5748 8.4332 44.9807 9.66348C48.7466 12.6719 51.341 17.3334 49.1488 22.2061ZM40.7969 16.1412C37.2153 16.833 33.6671 15.6411 30.6711 13.4977C28.7631 12.402 27.0392 10.9891 25.1311 9.89334C29.6668 9.74936 34.1354 9.35548 37.7674 11.8641C39.1063 12.8445 40.3282 14.3919 40.7969 16.1412ZM47.4789 104.343C45.4368 98.7295 47.6792 93.0399 51.0766 88.6477C50.9596 93.2322 53.2862 96.8941 48.9516 101.805C48.3324 102.507 49.4204 103.554 50.1065 103.103C52.5332 101.113 54.7257 100.258 57.8052 99.7008C59.8136 99.1626 62.14 98.8071 64.0144 97.7692C60.8849 103.161 53.6549 108.312 47.4789 104.343Z" fill="url(#paint0_linear_1_461)"/>
<defs>
<linearGradient id="paint0_linear_1_461" x1="77.8213" y1="67.7012" x2="47.724" y2="75.8327" gradientUnits="userSpaceOnUse">
<stop stop-color="#F8C791"/>
<stop offset="0.515625" stop-color="#E2AA57"/>
<stop offset="1" stop-color="#E4AB55"/>
</linearGradient>
</defs>
</svg>
