<svg width="88" height="116" viewBox="0 0 88 116" fill="none" xmlns="http://www.w3.org/2000/svg">
<path d="M55.8513 12.2765C49.19 15.0448 44.42 17.7841 38.7962 22.7053C30.7958 30.4713 26.1427 37.7952 23.1965 48.7904C21.4388 56.3544 20.9029 62.371 22.1076 69.9253C23.3793 77.2296 25.1196 82.7848 28.7344 89.3778C32.6672 95.7883 36.3825 99.9978 42.3573 104.813C48.65 109.445 53.8383 112.174 61.3696 114.192C61.2357 114.692 61.1018 115.192 60.9679 115.692C53.2524 113.357 47.7462 110.81 41.5204 105.928C35.5457 101.113 31.6462 96.5861 27.7804 89.9257C23.9146 83.2654 22.1742 77.7102 20.9695 70.156C19.6477 62.0346 20.1836 56.0181 21.9413 48.4541C25.1385 37.5261 29.8586 29.9524 38.177 22.0037C43.8008 17.0826 48.5708 14.3432 55.4832 11.6422C55.7342 11.7095 55.9183 12.0266 55.8513 12.2765Z" fill="#E3AA55"/>
<path d="M30.1428 31.9036C35.8499 33.7006 41.189 30.8459 45.1558 27.0878C40.4193 27.6935 36.9884 25.435 32.5028 30.1254C31.7998 30.7406 30.6785 29.9045 31.1974 28.9722C35.0136 22.7632 33.2229 20.4086 34.8131 15.478C34.8801 15.2281 34.947 14.9783 35.0809 14.4785C33.608 15.9586 32.1351 17.4388 31.1643 19.0535C28.2687 22.8308 27.1806 27.8959 30.1428 31.9036ZM23.9664 43.9081C29.8242 44.1385 34.427 40.0152 37.5904 35.2383C33.4062 36.7955 29.1384 35.652 25.9582 41.4956C25.5063 42.178 24 41.7744 24.2678 40.7749C25.3224 37.8434 25.4229 35.4599 24.9042 32.3747C24.6868 30.1738 24.1513 28.1555 24.5029 25.8392C20.7704 30.7314 18.2427 39.1605 23.9664 43.9081ZM20.9867 57.037C26.9952 55.7008 30.2926 50.4242 32.0167 44.9938C28.3178 47.7524 23.7152 47.8583 22.2253 54.4227C21.9575 55.4223 20.4512 55.0187 20.4011 54.2017C20.4514 51.0012 20.2339 48.8003 18.9621 45.5134C18.1756 43.4278 17.3891 41.3422 17.1716 39.1413C14.5604 44.8696 13.924 53.2697 20.2336 56.8352C20.4846 56.9024 20.7357 56.9697 20.9867 57.037ZM21.2204 70.2234C26.4926 67.6186 28.5347 62.0056 29.0036 56.2389C25.9239 59.6991 21.8736 60.7564 21.7728 67.1574C21.823 67.9744 20.1159 68.3205 20.1327 67.2536C18.7941 60.1991 15.7815 59.3919 13.7733 54.8363C13.5892 54.5192 13.6562 54.2693 13.4721 53.9521C13.2545 55.7686 12.9698 57.835 13.2543 59.7861C13.8733 64.5051 15.8313 68.2437 20.5342 69.7717L21.2204 70.2234ZM24.7345 83.2175C29.2703 79.344 29.8061 73.3274 28.8859 67.7242C26.7434 71.7033 22.9274 73.8948 24.4668 80.1996C24.7681 81.0838 23.245 81.747 22.6927 80.7955C19.58 74.337 16.6176 74.3467 13.4044 70.2718C13.2203 69.9546 12.9693 69.8873 12.7852 69.5702C13.5715 75.6732 17.3536 83.6503 24.7345 83.2175ZM31.3616 94.6352C34.7761 89.9256 33.9898 83.8226 31.6134 78.6327C30.6592 83.198 27.4624 86.0911 30.5249 91.7327C30.8262 92.6169 29.5541 93.3474 29.186 92.7131C24.4832 87.1676 21.32 87.927 17.5879 84.7844C17.3368 84.7171 17.1527 84.3999 16.9686 84.0828C18.5751 90.1377 24.2652 97.019 31.3616 94.6352ZM38.93 22.2056C44.0512 25.1849 50.0598 23.8487 54.8968 20.8594C50.4951 20.2157 47.1981 17.4574 41.6581 21.0618C40.7041 21.6097 39.7167 20.2738 40.4197 19.6586C42.6625 17.3134 43.9513 15.5161 45.0058 12.5847C45.7925 10.6528 46.3952 8.4038 47.935 6.67374C46.0939 7.51959 44.5039 8.43271 43.098 9.66299C39.3321 12.6714 36.7377 17.3329 38.93 22.2056ZM47.2818 16.1407C50.8634 16.8326 54.4117 15.6406 57.4076 13.4972C59.3156 12.4015 61.0396 10.9886 62.9476 9.89285C58.412 9.74887 53.9433 9.355 50.3114 11.8636C48.9724 12.844 47.7505 14.3915 47.2818 16.1407ZM40.5998 104.342C42.6419 98.7291 40.3995 93.0394 37.0022 88.6472C37.1191 93.2317 34.7925 96.8937 39.1271 101.805C39.7463 102.506 38.6584 103.554 37.9722 103.102C35.5455 101.113 33.353 100.258 30.2735 99.7003C28.2652 99.1621 25.9388 98.8066 24.0643 97.7687C27.1938 103.16 34.4238 108.312 40.5998 104.342Z" fill="url(#paint0_linear_1_465)"/>
<defs>
<linearGradient id="paint0_linear_1_465" x1="10.2575" y1="67.7007" x2="40.3548" y2="75.8323" gradientUnits="userSpaceOnUse">
<stop stop-color="#F8C791"/>
<stop offset="0.515625" stop-color="#E2AA57"/>
<stop offset="1" stop-color="#E4AB55"/>
</linearGradient>
</defs>
</svg>
