<svg width="51" height="59" viewBox="0 0 51 59" fill="none" xmlns="http://www.w3.org/2000/svg">
<path d="M25.1169 58.85C36.7421 51.9505 50.3416 39.2946 50.1721 25.7708C50.089 19.1322 47.4666 12.9073 42.7882 8.24233C33.0546 -1.46337 17.243 -1.46413 7.4749 8.2394C2.75949 12.9236 0.15288 19.1563 0.135302 25.7895C0.100788 38.9008 14.1791 51.8714 25.1169 58.85ZM25.0255 18.1553C29.2702 18.1553 32.7235 21.5823 32.7235 25.7946C32.7235 30.0069 29.2702 33.4339 25.0255 33.4339C20.7809 33.4339 17.3276 30.0069 17.3276 25.7946C17.3276 21.5823 20.7809 18.1553 25.0255 18.1553Z" fill="#E3AA55"/>
</svg>
