<svg width="64" height="55" viewBox="0 0 64 55" fill="none" xmlns="http://www.w3.org/2000/svg">
  <path d="M27.305 38.0328C27.5174 38.6093 28.1343 38.9289 28.7277 38.7699L34.3342 37.2676C34.9681 37.0977 35.3443 36.4462 35.1744 35.8123L31.6011 22.4762C31.4312 21.8423 30.7797 21.4661 30.1457 21.636L23.3208 23.4647C22.9982 23.5512 22.7269 23.7694 22.5733 24.0658C22.4196 24.3624 22.3979 24.7098 22.5132 25.0231L27.305 38.0328ZM29.613 24.2391L32.5713 35.2797L29.1603 36.1937L25.1933 25.4234L29.613 24.2391Z" fill="url(#paint0_linear_1_956)" />
  <path d="M39.7118 35.8264L45.3183 34.3242C45.9523 34.1543 46.3284 33.5028 46.1586 32.8688L42.5852 19.5328C42.4153 18.8989 41.7638 18.5227 41.1299 18.6926L35.5233 20.1949C34.8895 20.3647 34.5132 21.0163 34.6831 21.6502L38.2565 34.9862C38.4263 35.6201 39.078 35.9963 39.7118 35.8264ZM37.2862 22.1829L40.5972 21.2957L43.5554 32.3362L40.2445 33.2233L37.2862 22.1829Z" fill="url(#paint1_linear_1_956)" />
  <path d="M50.6987 32.898L56.3052 31.3957C56.8594 31.2472 57.2285 30.7237 57.182 30.1517L56.0454 16.1627C56.0168 15.8114 55.8337 15.4908 55.5457 15.2876C55.2575 15.0846 54.894 15.0198 54.5534 15.1111L46.5101 17.2663C45.8763 17.4361 45.5 18.0877 45.6699 18.7216L49.2433 32.0576C49.4132 32.6917 50.0648 33.0678 50.6987 32.898ZM48.2731 19.2544L53.792 17.7756L54.733 29.3566L51.2313 30.2949L48.2731 19.2544Z" fill="url(#paint2_linear_1_956)" />
  <path d="M61.2719 0.878046C61.1006 0.245728 60.4501 -0.128766 59.8173 0.0407865L11.8421 12.8957L8.26991 4.94214C8.03109 4.41035 7.44148 4.13038 6.87837 4.28126L0.88091 5.88828C0.246983 6.05814 -0.129195 6.7097 0.0406654 7.34363C0.210526 7.97755 0.862084 8.35373 1.49601 8.18387L6.51635 6.83867L10.0802 14.7738L13.3627 22.7463C13.3631 22.7473 13.3636 22.7483 13.364 22.7493C13.3647 22.7511 13.3654 22.7528 13.3662 22.7546L21.4492 41.9723C22.2812 43.9506 24.4122 45.0572 26.4706 44.613C25.8337 45.9867 25.6565 47.5883 26.0802 49.1695C27.0323 52.7227 30.6644 54.848 34.1767 53.9069C37.689 52.9658 39.7718 49.3093 38.8197 45.756C38.3966 44.1772 37.4445 42.8804 36.209 42.0092L50.3204 38.228C49.686 39.6003 49.5099 41.1995 49.9329 42.7782C50.8849 46.3314 54.517 48.4567 58.0294 47.5156C61.5416 46.5745 63.6245 42.918 62.6724 39.3647C62.2393 37.7484 61.2519 36.4278 59.9734 35.5566C62.4599 34.4324 64.0003 31.7532 63.6462 28.9454L61.3767 10.953L62.6711 10.6062C62.9759 10.5245 63.2359 10.3248 63.3933 10.0512C63.5508 9.77761 63.593 9.4526 63.5105 9.14784L61.2719 0.878046ZM59.2875 2.64316L60.9053 8.61902L15.1627 20.8757L12.7861 15.1032L59.2875 2.64316ZM36.5241 46.3712C37.1371 48.6587 35.8081 51.0095 33.5616 51.6114C31.3152 52.2134 28.9888 50.8421 28.3758 48.5545C27.7629 46.2669 29.092 43.9163 31.3384 43.3144C33.5849 42.7123 35.9112 44.0836 36.5241 46.3712ZM57.4142 45.22C55.1677 45.822 52.8413 44.4507 52.2283 42.1631C51.6154 39.8756 52.9445 37.5249 55.191 36.923C57.4374 36.321 59.7637 37.6923 60.3767 39.9798C60.9896 42.2672 59.6606 44.6181 57.4142 45.22ZM61.2882 29.243C61.5376 31.2204 60.2998 33.0936 58.409 33.6003L26.0642 42.2671C25.0842 42.5296 24.0419 42.0068 23.6398 41.0509L16.0852 23.0889L59.0594 11.574L61.2882 29.243Z" fill="url(#paint3_linear_1_956)" />
  <defs>
    <linearGradient id="paint0_linear_1_956" x1="1.60691" y1="37.6417" x2="51.442" y2="37.9467" gradientUnits="userSpaceOnUse">
      <stop stop-color="#F8C791" />
      <stop offset="0.515625" stop-color="#E2AA57" />
      <stop offset="1" stop-color="#E4AB55" />
    </linearGradient>
    <linearGradient id="paint1_linear_1_956" x1="1.60691" y1="37.6417" x2="51.442" y2="37.9467" gradientUnits="userSpaceOnUse">
      <stop stop-color="#F8C791" />
      <stop offset="0.515625" stop-color="#E2AA57" />
      <stop offset="1" stop-color="#E4AB55" />
    </linearGradient>
    <linearGradient id="paint2_linear_1_956" x1="1.60691" y1="37.6417" x2="51.442" y2="37.9467" gradientUnits="userSpaceOnUse">
      <stop stop-color="#F8C791" />
      <stop offset="0.515625" stop-color="#E2AA57" />
      <stop offset="1" stop-color="#E4AB55" />
    </linearGradient>
    <linearGradient id="paint3_linear_1_956" x1="1.60691" y1="37.6417" x2="51.442" y2="37.9467" gradientUnits="userSpaceOnUse">
      <stop stop-color="#F8C791" />
      <stop offset="0.515625" stop-color="#E2AA57" />
      <stop offset="1" stop-color="#E4AB55" />
    </linearGradient>
  </defs>
</svg>
