<svg width="88" height="116" fill="none" xmlns="http://www.w3.org/2000/svg"><path d="M32.228 12.282c6.662 2.769 11.432 5.508 17.055 10.43 8 7.765 12.654 15.089 15.6 26.084 1.758 7.564 2.294 13.58 1.089 21.135-1.272 7.305-3.012 12.86-6.627 19.453-3.933 6.41-7.648 10.62-13.623 15.435-6.292 4.632-11.48 7.361-19.012 9.379l.402 1.5c7.715-2.336 13.221-4.882 19.447-9.764 5.975-4.815 9.874-9.342 13.74-16.002 3.866-6.66 5.606-12.216 6.811-19.77 1.322-8.122.786-14.138-.972-21.702-3.197-10.928-7.917-18.502-16.235-26.45-5.624-4.922-10.394-7.66-17.307-10.362-.25.067-.435.385-.368.634Z" fill="#E3AA55"/><path d="M57.936 31.904c-5.707 1.797-11.046-1.058-15.013-4.816 4.736.606 8.167-1.652 12.653 3.038.703.615 1.824-.221 1.305-1.153-3.816-6.21-2.025-8.564-3.615-13.494l-.268-1c1.473 1.48 2.946 2.96 3.916 4.575 2.896 3.777 3.984 8.842 1.022 12.85Zm6.176 12.005c-5.857.23-10.46-3.893-13.624-8.67 4.184 1.557 8.452.414 11.633 6.257.451.682 1.958.279 1.69-.72-1.055-2.932-1.155-5.316-.636-8.4.217-2.202.753-4.22.4-6.536 3.733 4.892 6.261 13.32.537 18.069Zm2.98 13.129c-6.008-1.337-9.306-6.613-11.03-12.044 3.699 2.759 8.302 2.865 9.791 9.43.268.999 1.775.595 1.825-.222-.05-3.2.167-5.401 1.439-8.688.786-2.086 1.573-4.171 1.79-6.372 2.611 5.728 3.248 14.128-3.062 17.694l-.753.202Zm-.234 13.186c-5.272-2.605-7.314-8.218-7.783-13.985 3.08 3.46 7.13 4.518 7.23 10.919-.05.817 1.658 1.163 1.641.096 1.339-7.054 4.351-7.862 6.36-12.417.184-.317.117-.567.3-.884.218 1.816.503 3.883.219 5.834-.62 4.719-2.578 8.457-7.28 9.985l-.687.452Zm-3.514 12.994c-4.535-3.874-5.071-9.89-4.151-15.493 2.142 3.979 5.958 6.17 4.419 12.475-.301.884 1.222 1.547 1.774.596 3.113-6.459 6.075-6.449 9.288-10.524.184-.317.435-.384.62-.701-.787 6.103-4.569 14.08-11.95 13.647Zm-6.627 11.418c-3.414-4.71-2.628-10.813-.252-16.003.954 4.566 4.151 7.459 1.089 13.1-.301.884.97 1.615 1.339.98 4.703-5.545 7.866-4.785 11.598-7.928.25-.067.435-.385.62-.702-1.607 6.055-7.298 12.936-14.394 10.553Zm-7.568-72.43c-5.121 2.98-11.13 1.643-15.967-1.346 4.402-.644 7.699-3.402 13.239.202.954.548 1.941-.788 1.238-1.403-2.243-2.345-3.532-4.142-4.586-7.074-.787-1.932-1.39-4.18-2.93-5.91 1.842.845 3.432 1.758 4.838 2.988 3.766 3.009 6.36 7.67 4.168 12.543Zm-8.352-6.065c-3.582.692-7.13-.5-10.126-2.643-1.908-1.096-3.632-2.509-5.54-3.605 4.536-.144 9.004-.538 12.636 1.971 1.34.98 2.561 2.528 3.03 4.277Zm6.682 88.202c-2.042-5.614.2-11.303 3.598-15.695-.117 4.584 2.21 8.246-2.125 13.157-.62.702.468 1.749 1.154 1.298 2.427-1.99 4.62-2.845 7.7-3.402 2.008-.538 4.334-.894 6.208-1.932-3.13 5.392-10.36 10.543-16.535 6.574Z" fill="url(#a)"/><defs><linearGradient id="a" x1="77.821" y1="67.701" x2="47.724" y2="75.833" gradientUnits="userSpaceOnUse"><stop stop-color="#F8C791"/><stop offset=".516" stop-color="#E2AA57"/><stop offset="1" stop-color="#E4AB55"/></linearGradient></defs></svg>