<svg width="88" height="116" fill="none" xmlns="http://www.w3.org/2000/svg"><path d="M55.851 12.277c-6.661 2.768-11.431 5.507-17.055 10.428-8 7.766-12.653 15.09-15.6 26.085-1.757 7.564-2.293 13.581-1.088 21.135 1.271 7.305 3.012 12.86 6.626 19.453 3.933 6.41 7.648 10.62 13.623 15.435 6.293 4.632 11.481 7.361 19.013 9.379l-.402 1.5c-7.716-2.335-13.222-4.882-19.448-9.764-5.974-4.815-9.874-9.342-13.74-16.002-3.865-6.66-5.606-12.216-6.81-19.77-1.322-8.121-.786-14.138.971-21.702 3.198-10.928 7.918-18.502 16.236-26.45 5.624-4.921 10.394-7.66 17.306-10.362.251.068.435.385.368.635Z" fill="#E3AA55"/><path d="M30.143 31.904c5.707 1.797 11.046-1.058 15.013-4.816-4.737.605-8.168-1.653-12.653 3.037-.703.616-1.825-.22-1.306-1.153 3.817-6.209 2.026-8.563 3.616-13.494l.268-1c-1.473 1.48-2.946 2.96-3.917 4.575-2.895 3.778-3.983 8.843-1.021 12.85Zm-6.177 12.004c5.858.23 10.461-3.893 13.624-8.67-4.184 1.557-8.452.414-11.632 6.258-.452.682-1.958.278-1.69-.721 1.054-2.932 1.155-5.315.636-8.4-.217-2.201-.753-4.22-.401-6.536-3.733 4.892-6.26 13.322-.537 18.07Zm-2.98 13.129c6.01-1.336 9.307-6.613 11.03-12.043-3.698 2.758-8.3 2.864-9.79 9.429-.268 1-1.775.596-1.825-.221.05-3.2-.167-5.402-1.439-8.689-.786-2.085-1.573-4.17-1.79-6.372-2.612 5.729-3.248 14.129 3.062 17.694l.753.202Zm.234 13.186c5.273-2.604 7.315-8.217 7.784-13.984-3.08 3.46-7.13 4.517-7.231 10.918.05.817-1.657 1.163-1.64.097-1.339-7.055-4.351-7.862-6.36-12.418-.184-.317-.117-.567-.3-.884-.219 1.817-.503 3.883-.219 5.834.62 4.72 2.577 8.458 7.28 9.986l.686.451Zm3.515 12.995c4.535-3.874 5.071-9.89 4.15-15.494-2.142 3.98-5.958 6.17-4.418 12.476.301.884-1.222 1.547-1.774.596-3.113-6.459-6.075-6.45-9.289-10.524-.184-.317-.435-.385-.619-.702.787 6.103 4.569 14.08 11.95 13.648Zm6.627 11.417c3.414-4.71 2.628-10.812.251-16.002-.954 4.565-4.15 7.458-1.088 13.1.301.884-.97 1.614-1.339.98-4.703-5.545-7.866-4.786-11.598-7.929-.251-.067-.435-.384-.62-.701 1.607 6.055 7.297 12.936 14.394 10.552Zm7.568-72.43c5.121 2.98 11.13 1.644 15.967-1.346-4.402-.643-7.699-3.402-13.239.203-.954.548-1.941-.788-1.238-1.403 2.242-2.346 3.531-4.143 4.586-7.074.786-1.932 1.39-4.181 2.929-5.911-1.841.846-3.431 1.759-4.837 2.989-3.766 3.008-6.36 7.67-4.168 12.543Zm8.352-6.064c3.581.692 7.13-.5 10.126-2.644 1.908-1.095 3.632-2.508 5.54-3.604-4.536-.144-9.005-.538-12.637 1.97-1.339.981-2.56 2.529-3.03 4.278ZM40.6 104.342c2.042-5.613-.2-11.303-3.598-15.695.117 4.585-2.21 8.247 2.125 13.158.62.701-.469 1.749-1.155 1.297-2.427-1.989-4.619-2.844-7.699-3.402-2.008-.538-4.334-.893-6.209-1.931 3.13 5.391 10.36 10.543 16.536 6.573Z" fill="url(#a)"/><defs><linearGradient id="a" x1="10.258" y1="67.701" x2="40.355" y2="75.832" gradientUnits="userSpaceOnUse"><stop stop-color="#F8C791"/><stop offset=".516" stop-color="#E2AA57"/><stop offset="1" stop-color="#E4AB55"/></linearGradient></defs></svg>