<svg width="64" height="55" fill="none" xmlns="http://www.w3.org/2000/svg"><path d="M27.305 38.033c.212.576.83.896 1.423.737l5.606-1.502c.634-.17 1.01-.822.84-1.456l-3.573-13.336a1.188 1.188 0 0 0-1.455-.84l-6.825 1.829a1.189 1.189 0 0 0-.808 1.558l4.792 13.01Zm2.308-13.794 2.958 11.04-3.41.915-3.968-10.77 4.42-1.185Z" fill="url(#a)"/><path d="m39.712 35.826 5.606-1.502c.634-.17 1.01-.821.84-1.455l-3.573-13.336a1.188 1.188 0 0 0-1.455-.84l-5.607 1.502c-.634.17-1.01.821-.84 1.455l3.574 13.336c.17.634.821 1.01 1.455.84Zm-2.426-13.643 3.311-.887 2.958 11.04-3.31.887-2.959-11.04Z" fill="url(#b)"/><path d="m50.699 32.898 5.606-1.502a1.19 1.19 0 0 0 .877-1.244l-1.137-13.99a1.19 1.19 0 0 0-1.492-1.05l-8.043 2.154c-.634.17-1.01.822-.84 1.456l3.573 13.336c.17.634.822 1.01 1.456.84Zm-2.426-13.644 5.519-1.478.941 11.58-3.502.939-2.958-11.04Z" fill="url(#c)"/><path d="M61.272.878a1.188 1.188 0 0 0-1.455-.837L11.842 12.896 8.27 4.942a1.188 1.188 0 0 0-1.392-.66L.881 5.887a1.188 1.188 0 1 0 .615 2.296l5.02-1.345 3.564 7.935 3.283 7.972.001.003.002.006 8.083 19.217c.832 1.979 2.963 3.085 5.022 2.641a6.688 6.688 0 0 0-.39 4.556c.951 3.554 4.583 5.679 8.096 4.738 3.512-.941 5.595-4.598 4.643-8.151a6.689 6.689 0 0 0-2.611-3.747l14.111-3.781a6.689 6.689 0 0 0-.387 4.55c.952 3.553 4.584 5.679 8.096 4.738 3.513-.941 5.595-4.598 4.643-8.151a6.689 6.689 0 0 0-2.699-3.808c2.487-1.125 4.027-3.804 3.673-6.612l-2.27-17.992 1.295-.347a1.188 1.188 0 0 0 .84-1.458L61.27.878Zm-1.984 1.765 1.617 5.976-45.742 12.257-2.377-5.773 46.502-12.46ZM36.523 46.371c.613 2.288-.716 4.639-2.962 5.24-2.247.602-4.573-.769-5.186-3.056-.613-2.288.716-4.639 2.962-5.24 2.247-.603 4.573.769 5.186 3.056Zm20.89-1.151c-2.246.602-4.573-.77-5.186-3.057-.613-2.287.716-4.638 2.963-5.24 2.246-.602 4.573.77 5.186 3.057.613 2.287-.716 4.638-2.963 5.24Zm3.874-15.977c.25 1.977-.988 3.85-2.879 4.357l-32.345 8.667c-.98.263-2.022-.26-2.424-1.216l-7.555-17.962L59.06 11.574l2.23 17.669Z" fill="url(#d)"/><defs><linearGradient id="a" x1="1.607" y1="37.642" x2="51.442" y2="37.947" gradientUnits="userSpaceOnUse"><stop stop-color="#F8C791"/><stop offset=".516" stop-color="#E2AA57"/><stop offset="1" stop-color="#E4AB55"/></linearGradient><linearGradient id="b" x1="1.607" y1="37.642" x2="51.442" y2="37.947" gradientUnits="userSpaceOnUse"><stop stop-color="#F8C791"/><stop offset=".516" stop-color="#E2AA57"/><stop offset="1" stop-color="#E4AB55"/></linearGradient><linearGradient id="c" x1="1.607" y1="37.642" x2="51.442" y2="37.947" gradientUnits="userSpaceOnUse"><stop stop-color="#F8C791"/><stop offset=".516" stop-color="#E2AA57"/><stop offset="1" stop-color="#E4AB55"/></linearGradient><linearGradient id="d" x1="1.607" y1="37.642" x2="51.442" y2="37.947" gradientUnits="userSpaceOnUse"><stop stop-color="#F8C791"/><stop offset=".516" stop-color="#E2AA57"/><stop offset="1" stop-color="#E4AB55"/></linearGradient></defs></svg>