<svg xmlns="http://www.w3.org/2000/svg" xmlns:xlink="http://www.w3.org/1999/xlink"><defs>
<clipPath id="clip0_1_977">
<rect width="50" height="50" fill="white"/>
</clipPath>

<linearGradient id="paint0_linear_1_458" x1="0.744337" y1="12.8165" x2="23.826" y2="13.0087" gradientUnits="userSpaceOnUse">
<stop stop-color="#F8C791"/>
<stop offset="0.515625" stop-color="#E2AA57"/>
<stop offset="1" stop-color="#E4AB55"/>
</linearGradient>
<linearGradient id="paint1_linear_1_458" x1="0.744337" y1="12.8165" x2="23.826" y2="13.0087" gradientUnits="userSpaceOnUse">
<stop stop-color="#F8C791"/>
<stop offset="0.515625" stop-color="#E2AA57"/>
<stop offset="1" stop-color="#E4AB55"/>
</linearGradient>
</defs><symbol id="icon-arrow" viewBox="0 0 9 16">
<path d="M8 14.6315C8.00016 14.5337 7.96341 14.4398 7.89778 14.3706L1.84449 7.99759L7.89781 1.62459C8.03212 1.4782 8.02825 1.24487 7.88922 1.10345C7.75356 0.965518 7.53852 0.965518 7.4029 1.10345L1.10248 7.73738C0.96584 7.88129 0.96584 8.11458 1.10248 8.25853L7.4029 14.8925C7.5398 15.0362 7.76143 15.0358 7.89791 14.8916C7.96328 14.8226 8 14.729 8 14.6315Z"/>
</symbol><symbol id="icon-burger" viewBox="0 0 20 14">
<path d="M0 13.3333V12.0683H20V13.3333H0ZM0 7.29918V6.03415H20V7.29918H0ZM0 1.26502V0H20V1.26502H0Z"/>
</symbol><symbol id="icon-business" viewBox="0 0 52 47"><g fill="none">
<path d="M51.1652 7.34245H36.141V4.23244C36.5862 4.39938 37.033 4.57883 37.4815 4.77081C37.6843 4.85435 37.9118 4.85472 38.1148 4.77185C38.3179 4.68898 38.4802 4.52952 38.5666 4.32795C38.653 4.12639 38.6566 3.89891 38.5766 3.6947C38.4967 3.49049 38.3395 3.32595 38.1392 3.23667C34.3592 1.54712 30.2653 0.673828 26.1249 0.673828C21.9844 0.673828 17.8906 1.54712 14.1105 3.23667C14.0083 3.27881 13.9154 3.34085 13.8373 3.41919C13.7592 3.49753 13.6975 3.59061 13.6557 3.69302C13.6139 3.79544 13.5928 3.90513 13.5938 4.01574C13.5948 4.12635 13.6177 4.23566 13.6613 4.33732C13.7049 4.43899 13.7683 4.53097 13.8477 4.60794C13.9272 4.6849 14.0211 4.7453 14.1241 4.78563C14.2271 4.82597 14.3371 4.84543 14.4477 4.84288C14.5583 4.84034 14.6672 4.81584 14.7683 4.77081C15.2134 4.57939 15.6602 4.39994 16.1087 4.23244V7.34245H1.08456C0.863185 7.34245 0.650882 7.43039 0.494349 7.58692C0.337817 7.74346 0.249878 7.95576 0.249878 8.17713V29.0441C0.249878 29.2654 0.337817 29.4777 0.494349 29.6343C0.650882 29.7908 0.863185 29.8787 1.08456 29.8787H1.91923V44.0683C1.92121 44.7318 2.18567 45.3675 2.65484 45.8367C3.124 46.3059 3.75976 46.5703 4.42326 46.5723H47.8265C48.49 46.5703 49.1258 46.3059 49.5949 45.8367C50.0641 45.3675 50.3285 44.7318 50.3305 44.0683V29.8787H51.1652C51.3866 29.8787 51.5989 29.7908 51.7554 29.6343C51.9119 29.4777 51.9999 29.2654 51.9999 29.0441V8.17713C51.9999 7.95576 51.9119 7.74346 51.7554 7.58692C51.5989 7.43039 51.3866 7.34245 51.1652 7.34245ZM17.7122 3.67822C23.1812 1.90953 29.0686 1.90953 34.5376 3.67822C34.4939 3.78116 34.4714 3.89189 34.4717 4.00374V7.34245H17.7781V4.00374C17.7783 3.89189 17.7559 3.78116 17.7122 3.67822ZM48.6612 44.0683C48.6612 44.2896 48.5732 44.5019 48.4167 44.6585C48.2602 44.815 48.0479 44.9029 47.8265 44.9029H4.42326C4.20189 44.9029 3.98959 44.815 3.83306 44.6585C3.67653 44.5019 3.58859 44.2896 3.58859 44.0683V29.8787H22.7862V33.2174C22.7862 33.4388 22.8741 33.6511 23.0306 33.8077C23.1872 33.9642 23.3995 34.0521 23.6208 34.0521H28.6289C28.8503 34.0521 29.0626 33.9642 29.2191 33.8077C29.3756 33.6511 29.4636 33.4388 29.4636 33.2174V29.8787H48.6612V44.0683ZM24.4555 25.7054H27.7942V32.3828H24.4555V25.7054ZM50.3305 28.2094H29.4636V24.8707C29.4636 24.6493 29.3756 24.437 29.2191 24.2805C29.0626 24.1239 28.8503 24.036 28.6289 24.036H23.6208C23.3995 24.036 23.1872 24.1239 23.0306 24.2805C22.8741 24.437 22.7862 24.6493 22.7862 24.8707V28.2094H1.91923V9.01181H50.3305V28.2094Z" fill="#E3AA55"/>
</g></symbol><symbol id="icon-cart" viewBox="0 0 24 27">
<path d="M0.999966 26L3.45044 6.49155H8.10508V4.87046C8.10508 2.73628 9.85231 1 12 1C14.1476 1 15.8949 2.73628 15.8949 4.87046V6.49155L20.5 6.5L23 26C23 26 22.475 26 22.2629 26H1.73706C1.52498 26 0.999966 26 0.999966 26ZM14.4208 4.87046C14.4208 3.54399 13.3348 2.46484 12 2.46484C10.6651 2.46484 9.57917 3.54399 9.57917 4.87046V6.49155H14.4207L14.4208 4.87046ZM21.4235 24.5352L19.2474 7.9564H15.8949V9.57749C15.8949 9.98198 15.5649 10.3099 15.1578 10.3099C14.7508 10.3099 14.4208 9.98198 14.4208 9.57749V7.9564H9.57922V9.57749C9.57922 9.98198 9.24922 10.3099 8.84217 10.3099C8.43512 10.3099 8.10513 9.98198 8.10513 9.57749V7.9564H4.7526L2.57645 24.5352H21.4235Z" stroke-width="0.5"/>
</symbol><symbol id="icon-clock" viewBox="0 0 15 15"><g fill="none">
<path d="M12.8033 2.19668C11.3867 0.780147 9.50332 0 7.5 0C5.49668 0 3.61327 0.780147 2.19668 2.19668C0.780147 3.61327 0 5.49668 0 7.5C0 9.50332 0.780147 11.3867 2.19668 12.8033C3.61327 14.2199 5.49668 15 7.5 15C9.50332 15 11.3867 14.2199 12.8033 12.8033C14.2199 11.3867 15 9.50332 15 7.5C15 5.49668 14.2199 3.61327 12.8033 2.19668ZM7.5 13.8281C4.01065 13.8281 1.17188 10.9893 1.17188 7.5C1.17188 4.01065 4.01065 1.17188 7.5 1.17188C10.9893 1.17188 13.8281 4.01065 13.8281 7.5C13.8281 10.9893 10.9893 13.8281 7.5 13.8281Z" fill="#333333"/>
<path d="M8.05263 7V3H7V8H11V7H8.05263Z" fill="#333333" stroke="#333333" stroke-width="0.2"/>
</g></symbol><symbol id="icon-cross" viewBox="0 0 15 15">
<path d="M0.293014 1.70711C-0.0975102 1.31658 -0.0975099 0.683417 0.293014 0.292893C0.683539 -0.0976311 1.3167 -0.0976311 1.70723 0.292893L13.728 12.3137C14.1186 12.7042 14.1186 13.3374 13.728 13.7279C13.3375 14.1184 12.7044 14.1184 12.3138 13.7279L0.293014 1.70711Z"/>
<path d="M13.7279 1.70711C14.1184 1.31658 14.1184 0.683417 13.7279 0.292893C13.3374 -0.0976311 12.7042 -0.0976311 12.3137 0.292893L0.292893 12.3137C-0.0976312 12.7042 -0.0976309 13.3374 0.292893 13.7279C0.683418 14.1184 1.31658 14.1184 1.70711 13.7279L13.7279 1.70711Z"/>
</symbol><symbol id="icon-edit" viewBox="0 0 25 24">
<path d="M1.2476 13.5991L3.43493 11.4118C3.63684 11.2099 3.93637 11.1149 4.23778 11.1904V1L24.4782 1.00002V1.55167V20.1007L24.4783 20.9464H13.2459V23.5H13.2283L9.8837 23.2303C9.71999 23.1976 9.56958 23.1171 9.45155 22.9991L7.3989 20.9464H4.23768V20.1007V17.7853C2.38419 15.9319 1.4097 14.9573 1.24751 14.7951C0.917532 14.4652 0.917347 13.9294 1.2476 13.5991ZM22.7868 19.255V2.70896H5.92917V12.71C6.14708 12.9279 12.2623 19.0426 12.4748 19.255L22.7868 19.255ZM10.4665 21.622L11.7057 21.8699L11.4578 20.63L6.22077 15.3936L5.22936 16.3849L10.4665 21.622ZM4.03335 15.189L5.02466 14.1976L4.48549 13.6585L4.48453 13.6575L4.03294 13.2059L3.04162 14.1971L4.03335 15.189Z" stroke-width="0.4"/>
<path d="M10.6957 6H19.5V7.8H10.6957V6Z"/>
<path d="M8.82617 9.69998H19.5001V11.5H8.82617V9.69998Z"/>
<path d="M10.8262 13.5H19.5001V15.3H10.8262V13.5Z"/>
</symbol><symbol id="icon-elite" viewBox="0 0 50 50"><g fill="none">
<g clip-path="url(#clip0_1_977)">
<path d="M49.1665 15.0003H44.234H40.7657H36.6665V6.66699C36.6665 6.20678 36.2934 5.83365 35.8332 5.83365H30.8332V0.833653C30.8331 0.373444 30.46 0.000423204 29.9997 0.00052737C29.7787 0.00052737 29.567 0.0883399 29.4107 0.244486L27.4999 2.15532L25.589 0.244486C25.2636 -0.0808268 24.7361 -0.0808268 24.4107 0.244486L22.4999 2.15532L20.589 0.244486C20.2635 -0.080931 19.7359 -0.0808268 19.4105 0.244694C19.2544 0.400944 19.1665 0.612715 19.1665 0.833653V5.83365H14.1665C13.7063 5.83365 13.3332 6.20678 13.3332 6.66699V15.0003H9.51154H5.48821H0.833211C0.373003 15.0003 -0.00012207 15.3734 -0.00012207 15.8337V49.167C-0.00012207 49.6272 0.373003 50.0003 0.833211 50.0003H49.1665C49.6268 50.0003 49.9999 49.6272 49.9999 49.167V15.8337C49.9999 15.3734 49.6268 15.0003 49.1665 15.0003ZM13.3332 48.3337H1.66654V16.667H13.3332V48.3337ZM20.8332 2.84532L21.9107 3.92282C22.2361 4.24813 22.7636 4.24813 23.089 3.92282L24.9999 2.01199L26.9107 3.92282C27.2361 4.24813 27.7636 4.24813 28.089 3.92282L29.1665 2.84532V5.83365H20.8332V2.84532ZM20.8332 48.3337H18.3332V43.3337H20.8332V48.3337ZM18.3849 41.667C18.8443 38.0139 22.178 35.4248 25.8311 35.8841C28.8535 36.2641 31.2339 38.6445 31.614 41.667H18.3849ZM24.1665 48.3337H22.4999V43.3337H24.1665V48.3337ZM27.4999 48.3337H25.8332V43.3337H27.4999V48.3337ZM31.6665 48.3337H29.1665V43.3337H31.6665V48.3337ZM34.9999 48.3337H33.3332V42.5003C33.3332 37.8979 29.6023 34.167 24.9999 34.167C20.3975 34.167 16.6665 37.8979 16.6665 42.5003V48.3337H14.9999V7.50032H34.9999V48.3337ZM48.3332 48.3337H36.6665V16.667H48.3332V48.3337Z" fill="#E3AA55"/>
<path d="M19.1665 10C18.7063 10 18.3331 10.3731 18.3331 10.8333V12.5C18.3331 12.9602 18.7063 13.3333 19.1665 13.3333C19.6267 13.3333 19.9998 12.9602 19.9998 12.5V10.8333C19.9998 10.3731 19.6267 10 19.1665 10Z" fill="#E3AA55"/>
<path d="M22.4999 10C22.0397 10 21.6666 10.3731 21.6666 10.8333V12.5C21.6666 12.9602 22.0397 13.3333 22.4999 13.3333C22.9601 13.3333 23.3332 12.9602 23.3332 12.5V10.8333C23.3332 10.3731 22.9601 10 22.4999 10Z" fill="#E3AA55"/>
<path d="M27.4998 10C27.0396 10 26.6665 10.3731 26.6665 10.8333V12.5C26.6665 12.9602 27.0396 13.3333 27.4998 13.3333C27.96 13.3333 28.3332 12.9602 28.3332 12.5V10.8333C28.3332 10.3731 27.96 10 27.4998 10Z" fill="#E3AA55"/>
<path d="M30.8332 10C30.3729 10 29.9998 10.3731 29.9998 10.8333V12.5C29.9998 12.9602 30.3729 13.3333 30.8332 13.3333C31.2934 13.3333 31.6665 12.9602 31.6665 12.5V10.8333C31.6665 10.3731 31.2934 10 30.8332 10Z" fill="#E3AA55"/>
<path d="M19.1665 15.833C18.7063 15.833 18.3331 16.2061 18.3331 16.6663V18.333C18.3331 18.7932 18.7063 19.1663 19.1665 19.1663C19.6267 19.1663 19.9998 18.7932 19.9998 18.333V16.6663C19.9998 16.2061 19.6267 15.833 19.1665 15.833Z" fill="#E3AA55"/>
<path d="M22.4999 15.833C22.0397 15.833 21.6666 16.2061 21.6666 16.6663V18.333C21.6666 18.7932 22.0397 19.1663 22.4999 19.1663C22.9601 19.1663 23.3332 18.7932 23.3332 18.333V16.6663C23.3332 16.2061 22.9601 15.833 22.4999 15.833Z" fill="#E3AA55"/>
<path d="M27.4998 15.833C27.0396 15.833 26.6665 16.2061 26.6665 16.6663V18.333C26.6665 18.7932 27.0396 19.1663 27.4998 19.1663C27.96 19.1663 28.3332 18.7932 28.3332 18.333V16.6663C28.3332 16.2061 27.96 15.833 27.4998 15.833Z" fill="#E3AA55"/>
<path d="M30.8332 15.833C30.3729 15.833 29.9998 16.2061 29.9998 16.6663V18.333C29.9998 18.7932 30.3729 19.1663 30.8332 19.1663C31.2934 19.1663 31.6665 18.7932 31.6665 18.333V16.6663C31.6665 16.2061 31.2934 15.833 30.8332 15.833Z" fill="#E3AA55"/>
<path d="M19.1665 21.6665C18.7063 21.6665 18.3331 22.0396 18.3331 22.4998V24.1665C18.3331 24.6267 18.7063 24.9998 19.1665 24.9998C19.6267 24.9998 19.9998 24.6267 19.9998 24.1665V22.4998C19.9998 22.0396 19.6267 21.6665 19.1665 21.6665Z" fill="#E3AA55"/>
<path d="M22.4999 21.6665C22.0397 21.6665 21.6666 22.0396 21.6666 22.4998V24.1665C21.6666 24.6267 22.0397 24.9998 22.4999 24.9998C22.9601 24.9998 23.3332 24.6267 23.3332 24.1665V22.4998C23.3332 22.0396 22.9601 21.6665 22.4999 21.6665Z" fill="#E3AA55"/>
<path d="M27.4998 21.6665C27.0396 21.6665 26.6665 22.0396 26.6665 22.4998V24.1665C26.6665 24.6267 27.0396 24.9998 27.4998 24.9998C27.96 24.9998 28.3332 24.6267 28.3332 24.1665V22.4998C28.3332 22.0396 27.96 21.6665 27.4998 21.6665Z" fill="#E3AA55"/>
<path d="M30.8332 21.6665C30.3729 21.6665 29.9998 22.0396 29.9998 22.4998V24.1665C29.9998 24.6267 30.3729 24.9998 30.8332 24.9998C31.2934 24.9998 31.6665 24.6267 31.6665 24.1665V22.4998C31.6665 22.0396 31.2934 21.6665 30.8332 21.6665Z" fill="#E3AA55"/>
<path d="M19.1665 27.5C18.7063 27.5 18.3331 27.8731 18.3331 28.3333V30C18.3331 30.4602 18.7063 30.8333 19.1665 30.8333C19.6267 30.8333 19.9998 30.4602 19.9998 30V28.3333C19.9998 27.8731 19.6267 27.5 19.1665 27.5Z" fill="#E3AA55"/>
<path d="M22.4999 27.5C22.0397 27.5 21.6666 27.8731 21.6666 28.3333V30C21.6666 30.4602 22.0397 30.8333 22.4999 30.8333C22.9601 30.8333 23.3332 30.4602 23.3332 30V28.3333C23.3332 27.8731 22.9601 27.5 22.4999 27.5Z" fill="#E3AA55"/>
<path d="M27.4998 27.5C27.0396 27.5 26.6665 27.8731 26.6665 28.3333V30C26.6665 30.4602 27.0396 30.8333 27.4998 30.8333C27.96 30.8333 28.3332 30.4602 28.3332 30V28.3333C28.3332 27.8731 27.96 27.5 27.4998 27.5Z" fill="#E3AA55"/>
<path d="M30.8332 27.5C30.3729 27.5 29.9998 27.8731 29.9998 28.3333V30C29.9998 30.4602 30.3729 30.8333 30.8332 30.8333C31.2934 30.8333 31.6665 30.4602 31.6665 30V28.3333C31.6665 27.8731 31.2934 27.5 30.8332 27.5Z" fill="#E3AA55"/>
<path d="M40.8332 19.1665C40.373 19.1665 39.9999 19.5396 39.9999 19.9998V21.6665C39.9999 22.1267 40.373 22.4998 40.8332 22.4998C41.2934 22.4998 41.6665 22.1267 41.6665 21.6665V19.9998C41.6665 19.5396 41.2934 19.1665 40.8332 19.1665Z" fill="#E3AA55"/>
<path d="M44.1665 19.1665C43.7063 19.1665 43.3331 19.5396 43.3331 19.9998V21.6665C43.3331 22.1267 43.7063 22.4998 44.1665 22.4998C44.6267 22.4998 44.9998 22.1267 44.9998 21.6665V19.9998C44.9998 19.5396 44.6267 19.1665 44.1665 19.1665Z" fill="#E3AA55"/>
<path d="M40.8332 25C40.373 25 39.9999 25.3731 39.9999 25.8333V27.5C39.9999 27.9602 40.373 28.3333 40.8332 28.3333C41.2934 28.3333 41.6665 27.9602 41.6665 27.5V25.8333C41.6665 25.3731 41.2934 25 40.8332 25Z" fill="#E3AA55"/>
<path d="M44.1665 25C43.7063 25 43.3331 25.3731 43.3331 25.8333V27.5C43.3331 27.9602 43.7063 28.3333 44.1665 28.3333C44.6267 28.3333 44.9998 27.9602 44.9998 27.5V25.8333C44.9998 25.3731 44.6267 25 44.1665 25Z" fill="#E3AA55"/>
<path d="M40.8332 30.833C40.373 30.833 39.9999 31.2061 39.9999 31.6663V33.333C39.9999 33.7932 40.373 34.1663 40.8332 34.1663C41.2934 34.1663 41.6665 33.7932 41.6665 33.333V31.6663C41.6665 31.2061 41.2934 30.833 40.8332 30.833Z" fill="#E3AA55"/>
<path d="M44.1665 30.833C43.7063 30.833 43.3331 31.2061 43.3331 31.6663V33.333C43.3331 33.7932 43.7063 34.1663 44.1665 34.1663C44.6267 34.1663 44.9998 33.7932 44.9998 33.333V31.6663C44.9998 31.2061 44.6267 30.833 44.1665 30.833Z" fill="#E3AA55"/>
<path d="M40.8332 36.6665C40.373 36.6665 39.9999 37.0396 39.9999 37.4998V39.1665C39.9999 39.6267 40.373 39.9998 40.8332 39.9998C41.2934 39.9998 41.6665 39.6267 41.6665 39.1665V37.4998C41.6665 37.0396 41.2934 36.6665 40.8332 36.6665Z" fill="#E3AA55"/>
<path d="M44.1665 36.6665C43.7063 36.6665 43.3331 37.0396 43.3331 37.4998V39.1665C43.3331 39.6267 43.7063 39.9998 44.1665 39.9998C44.6267 39.9998 44.9998 39.6267 44.9998 39.1665V37.4998C44.9998 37.0396 44.6267 36.6665 44.1665 36.6665Z" fill="#E3AA55"/>
<path d="M40.8332 42.5C40.373 42.5 39.9999 42.8731 39.9999 43.3333V45C39.9999 45.4602 40.373 45.8333 40.8332 45.8333C41.2934 45.8333 41.6665 45.4602 41.6665 45V43.3333C41.6665 42.8731 41.2934 42.5 40.8332 42.5Z" fill="#E3AA55"/>
<path d="M44.1665 42.5C43.7063 42.5 43.3331 42.8731 43.3331 43.3333V45C43.3331 45.4602 43.7063 45.8333 44.1665 45.8333C44.6267 45.8333 44.9998 45.4602 44.9998 45V43.3333C44.9998 42.8731 44.6267 42.5 44.1665 42.5Z" fill="#E3AA55"/>
<path d="M5.83315 19.1665C5.37294 19.1665 4.99982 19.5396 4.99982 19.9998V21.6665C4.99982 22.1267 5.37294 22.4998 5.83315 22.4998C6.29336 22.4998 6.66648 22.1267 6.66648 21.6665V19.9998C6.66648 19.5396 6.29336 19.1665 5.83315 19.1665Z" fill="#E3AA55"/>
<path d="M9.16658 19.1665C8.70638 19.1665 8.33325 19.5396 8.33325 19.9998V21.6665C8.33325 22.1267 8.70638 22.4998 9.16658 22.4998C9.62679 22.4998 9.99992 22.1267 9.99992 21.6665V19.9998C9.99992 19.5396 9.62679 19.1665 9.16658 19.1665Z" fill="#E3AA55"/>
<path d="M5.83315 25C5.37294 25 4.99982 25.3731 4.99982 25.8333V27.5C4.99982 27.9602 5.37294 28.3333 5.83315 28.3333C6.29336 28.3333 6.66648 27.9602 6.66648 27.5V25.8333C6.66648 25.3731 6.29336 25 5.83315 25Z" fill="#E3AA55"/>
<path d="M9.16658 25C8.70638 25 8.33325 25.3731 8.33325 25.8333V27.5C8.33325 27.9602 8.70638 28.3333 9.16658 28.3333C9.62679 28.3333 9.99992 27.9602 9.99992 27.5V25.8333C9.99992 25.3731 9.62679 25 9.16658 25Z" fill="#E3AA55"/>
<path d="M5.83315 30.833C5.37294 30.833 4.99982 31.2061 4.99982 31.6663V33.333C4.99982 33.7932 5.37294 34.1663 5.83315 34.1663C6.29336 34.1663 6.66648 33.7932 6.66648 33.333V31.6663C6.66648 31.2061 6.29336 30.833 5.83315 30.833Z" fill="#E3AA55"/>
<path d="M9.16658 30.833C8.70638 30.833 8.33325 31.2061 8.33325 31.6663V33.333C8.33325 33.7932 8.70638 34.1663 9.16658 34.1663C9.62679 34.1663 9.99992 33.7932 9.99992 33.333V31.6663C9.99992 31.2061 9.62679 30.833 9.16658 30.833Z" fill="#E3AA55"/>
<path d="M5.83315 36.6665C5.37294 36.6665 4.99982 37.0396 4.99982 37.4998V39.1665C4.99982 39.6267 5.37294 39.9998 5.83315 39.9998C6.29336 39.9998 6.66648 39.6267 6.66648 39.1665V37.4998C6.66648 37.0396 6.29336 36.6665 5.83315 36.6665Z" fill="#E3AA55"/>
<path d="M9.16658 36.6665C8.70638 36.6665 8.33325 37.0396 8.33325 37.4998V39.1665C8.33325 39.6267 8.70638 39.9998 9.16658 39.9998C9.62679 39.9998 9.99992 39.6267 9.99992 39.1665V37.4998C9.99992 37.0396 9.62679 36.6665 9.16658 36.6665Z" fill="#E3AA55"/>
<path d="M5.83315 42.5C5.37294 42.5 4.99982 42.8731 4.99982 43.3333V45C4.99982 45.4602 5.37294 45.8333 5.83315 45.8333C6.29336 45.8333 6.66648 45.4602 6.66648 45V43.3333C6.66648 42.8731 6.29336 42.5 5.83315 42.5Z" fill="#E3AA55"/>
<path d="M9.16658 42.5C8.70638 42.5 8.33325 42.8731 8.33325 43.3333V45C8.33325 45.4602 8.70638 45.8333 9.16658 45.8333C9.62679 45.8333 9.99992 45.4602 9.99992 45V43.3333C9.99992 42.8731 9.62679 42.5 9.16658 42.5Z" fill="#E3AA55"/>
</g>

</g></symbol><symbol id="icon-facebook" viewBox="0 0 9 18">
<path d="M6 10.35H8.14286L9 6.75H6V4.95C6 4.023 6 3.15 7.71429 3.15H9V0.126C8.72057 0.0873001 7.66543 0 6.55114 0C4.224 0 2.57143 1.4913 2.57143 4.23V6.75H0V10.35H2.57143V18H6V10.35Z"/>
</symbol><symbol id="icon-king" viewBox="0 0 30 19"><g fill="none">
<path d="M26.9889 5.75911e-05C25.6027 5.75911e-05 24.475 1.12779 24.475 2.51402C24.475 3.35704 24.8924 4.10383 25.5311 4.56015L23.8288 6.33158C23.0534 7.13842 22.0102 7.5828 20.8912 7.5828C19.7721 7.5828 18.7289 7.13842 17.9536 6.33158L16.2561 4.56504C16.8986 4.10919 17.3191 3.36004 17.3191 2.51396C17.3191 1.12779 16.1914 0 14.8052 0C13.419 0 12.2912 1.12773 12.2912 2.51396C12.2912 3.32765 12.6801 4.05186 13.2813 4.51169L11.5325 6.33158C10.7572 7.13842 9.71387 7.5828 8.59489 7.5828C7.47591 7.5828 6.43266 7.13848 5.65728 6.33158L3.96185 4.56723C4.60607 4.11155 5.02787 3.36136 5.02787 2.51396C5.02787 1.12779 3.90014 0 2.51391 0C1.12773 0.000115245 0 1.12791 0 2.51414C0 3.5729 0.658224 4.48022 1.58676 4.85016V10.7844H27.8994V4.85667C28.8367 4.49106 29.5028 3.57918 29.5028 2.51408C29.5028 1.12785 28.3751 5.75911e-05 26.9889 5.75911e-05Z" fill="url(#paint0_linear_1_458)"/>
<path d="M1.58681 10.4999V17.5705C1.58681 18.0455 1.97185 18.4305 2.44678 18.4305H27.0395C27.5144 18.4305 27.8994 18.0455 27.8994 17.5705V10.4999H1.58681Z" fill="url(#paint1_linear_1_458)"/>

</g></symbol><symbol id="icon-people" viewBox="0 0 42 57"><g fill="none">
<path d="M37.2202 34.2123C37.2148 34.21 37.2095 34.2078 37.2042 34.2057L26.1877 29.8642L26.1864 28.2616C28.0334 27.0022 29.2521 24.8594 29.2521 22.4319V20.4198C31.2389 20.2665 32.684 18.6228 32.684 16.6967C32.684 15.4613 32.0822 14.2585 30.9679 13.5456V11.4662H29.3267V12.9813C29.2907 12.9779 29.2547 12.9749 29.2185 12.9723C29.0802 12.0928 28.5602 11.3678 27.8571 10.9502L27.8543 10.9485L26.3342 10.0489C25.4837 9.54555 24.4441 9.51025 23.553 9.98101C18.7854 12.4998 12.3149 15.7326 9.49698 11.0966C8.70274 9.79006 8.53643 8.21045 9.0405 6.76279C9.69612 4.88012 11.4995 2.96226 13.6773 2.93932C15.6259 2.91872 17.5045 2.61699 19.2613 2.04246C23.4776 0.663053 25.5254 3.50082 25.6078 3.61817C25.7613 3.84297 26.0132 3.97669 26.2817 3.97669C26.2857 3.97669 26.2899 3.97669 26.294 3.97658C27.9621 3.95108 29.3267 5.31657 29.3267 7.01643V11.4662C29.78 11.4662 30.9679 11.4662 30.9679 11.4662V7.01643C30.9679 4.51436 29.0626 2.49273 26.6797 2.31837C24.9425 0.330253 22.0765 -0.63274 18.7591 0.452395C17.1594 0.975589 15.4439 1.25038 13.6601 1.2692C11.0319 1.29692 8.49594 3.32657 7.49348 6.20486C6.82222 8.1324 7.04379 10.2356 8.10118 11.9751C8.67473 12.9188 9.45365 13.6837 10.3637 14.2263C9.73058 14.8976 9.36054 15.7717 9.36054 16.6968C9.36054 18.6203 10.8027 20.2666 12.7926 20.4198V22.4319C12.7926 24.837 13.9889 26.9626 15.8074 28.2264V29.8292C14.1879 30.4729 6.41717 33.5611 4.79345 34.2065C4.78886 34.2083 4.78426 34.2102 4.77967 34.212C2.47758 35.1762 -0.00012207 37.9389 -0.00012207 41.7262V54.7164C-0.00012207 55.9755 1.0065 56.9999 2.24398 56.9999L22.9146 57L19.0851 55.3298H8.22875C8.22875 54.4798 8.22875 41.4184 8.22875 40.8733C8.22875 40.4121 7.86145 40.0382 7.40814 40.0382C6.95484 40.0382 6.58753 40.4121 6.58753 40.8733V44.496H1.6411V41.7264C1.6411 38.5072 3.88542 36.3959 5.39808 35.7593L12.25 33.0362L16.388 36.5281C17.0182 37.0602 17.9569 37.0277 18.5492 36.4106V43.299C18.5492 44.0515 19.1509 44.6637 19.8904 44.6637H22.1068C22.8464 44.6637 23.4479 44.0514 23.4479 43.299V36.4076C24.0394 37.0271 24.9798 37.0617 25.6117 36.5282L29.7315 33.0518L36.6032 35.7599C38.4707 36.5462 40.3587 38.8459 40.3587 41.7264V44.4961H35.4122V40.8734C35.4122 40.4122 35.0449 40.0383 34.5916 40.0383C34.1383 40.0383 33.771 40.4122 33.771 40.8734V55.3299L19.0851 55.3298L22.9146 57H39.7559C40.9933 57 41.9999 55.9757 41.9999 54.7165C41.9999 53.4269 41.9999 43.0112 41.9999 41.7263C41.9998 38.4809 40.0343 35.3909 37.2202 34.2123ZM31.0427 16.6968C31.0427 17.716 30.3144 18.5952 29.254 18.7402C29.2533 18.1137 29.2522 16.9298 29.252 14.655C30.3262 14.8042 31.0427 15.6886 31.0427 16.6968ZM12.7905 18.7402C11.7288 18.5953 11.0017 17.7154 11.0017 16.6968C11.0017 15.9889 11.4287 15.3255 12.109 14.9476C12.2187 14.9749 12.5594 15.048 12.7923 15.0805C12.7921 17.0795 12.7911 18.1536 12.7905 18.7402ZM6.58753 46.1662V55.33H2.24387C1.91147 55.33 1.64099 55.0549 1.64099 54.7166V46.1662H6.58753ZM14.4338 15.1219C17.1998 14.9193 20.4055 13.4583 22.9346 12.1758C22.9346 12.1758 23.4958 11.8929 24.301 11.4675C24.3037 11.4662 24.3063 11.4647 24.3089 11.4634C24.6782 11.2688 25.1302 11.2686 25.509 11.4928L27.0289 12.3923C27.3861 12.6038 27.5999 12.9935 27.6107 13.3914V19.07L26.6093 19.6465C25.8991 20.0551 25.4581 20.8247 25.4581 21.6548V22.3724C25.4581 22.7237 25.1772 23.0096 24.8319 23.0096H24.2734C24.0323 23.0096 23.803 22.917 23.6277 22.7487C23.1466 22.287 22.5175 22.0328 21.8563 22.0328H20.1886C19.5274 22.0328 18.8982 22.287 18.4171 22.7487C18.2416 22.9169 18.0124 23.0095 17.7715 23.0095H17.2129C16.8677 23.0095 16.5867 22.7237 16.5867 22.3723V21.6547C16.5867 20.8247 16.1457 20.0551 15.4356 19.6463L14.4341 19.0699L14.4338 15.1219ZM14.4338 22.432V20.9887L14.6273 21.1C14.8235 21.2129 14.9453 21.4255 14.9453 21.6547V22.3723C14.9453 23.6446 15.9624 24.6797 17.2127 24.6797H17.7713C18.4325 24.6797 19.0617 24.4255 19.5427 23.9638C19.7182 23.7956 19.9474 23.7029 20.1883 23.7029H21.8561C22.097 23.7029 22.3263 23.7956 22.5016 23.9636C22.9826 24.4252 23.6117 24.6795 24.2731 24.6795H24.8317C26.082 24.6795 27.0991 23.6445 27.0991 22.3722V21.6546C27.0991 21.4254 27.2209 21.2128 27.4171 21.1L27.6106 20.9887V22.432C27.6106 25.3866 25.2432 27.7748 22.3602 27.7748H19.6841C16.7818 27.7747 14.4338 25.3685 14.4338 22.432ZM17.3979 35.2108L13.9978 32.3415L16.354 31.405L18.6421 33.3357C18.5825 33.4256 17.4461 35.1384 17.3979 35.2108ZM21.8065 42.9936H20.1903V34.8271H21.8065V42.9936ZM22.2788 32.0763C21.9492 32.3545 21.749 32.7602 21.7082 33.1571H20.2914C20.2512 32.7585 20.0516 32.3554 19.7207 32.0763L17.4297 30.143C17.437 30.0943 17.4486 29.9693 17.4486 29.8829V29.0655C18.1515 29.3107 18.9308 29.445 19.6843 29.445H22.3605C23.0939 29.445 23.859 29.3169 24.5459 29.0827L24.5466 29.8902L24.5467 29.8934C24.5471 29.9791 24.5539 30.0635 24.5667 30.146L22.2788 32.0763ZM24.6016 35.2108C24.5536 35.1383 23.4172 33.4256 23.3574 33.3357L25.6161 31.43C27.9555 32.3519 27.3423 32.1103 27.9787 32.361L24.6016 35.2108ZM40.3585 54.7166C40.3585 55.0549 40.0881 55.33 39.7558 55.33H35.4121V46.1662H40.3585V54.7166Z" fill="#E3AA55"/>
</g></symbol><symbol id="icon-phone" viewBox="0 0 15 15">
<path d="M14.9951 2.95177C14.9549 1.31736 13.6141 -6.10352e-05 11.9706 -6.10352e-05C10.3018 -6.10352e-05 8.94405 1.35791 8.94405 3.02707C8.94405 4.70654 10.3247 6.08783 12.0329 6.05256C11.0804 8.85849 8.85688 11.0825 6.05149 12.0352C6.08664 10.3298 4.70943 8.94568 3.02654 8.94568C1.3577 8.94568 0 10.3036 0 11.9728C0 13.6782 1.4099 14.9999 2.9891 14.9999C9.90316 14.9999 15.1832 9.13593 14.9951 2.95177Z"/>
</symbol><symbol id="icon-search" viewBox="0 0 19 19"><g fill="none">
<circle cx="7.49988" cy="7.5" r="6.65" stroke-width="1.7"/>
<line x1="12.3674" y1="11.9161" x2="17.6641" y2="17.4323" stroke-width="2"/>
</g></symbol><symbol id="icon-telegram" viewBox="0 0 10 9">
<path d="M3.92392 5.49238L3.7585 7.81911C3.99517 7.81911 4.09767 7.71744 4.22059 7.59535L5.3302 6.53491L7.62942 8.2187C8.0511 8.45371 8.34819 8.32995 8.46194 7.83077L9.97115 0.758937L9.97156 0.75852C10.1053 0.135172 9.74614 -0.108584 9.3353 0.0443367L0.464252 3.44067C-0.141179 3.67567 -0.132012 4.01318 0.361333 4.1661L2.6293 4.87154L7.89735 1.57521C8.14527 1.41104 8.37069 1.50187 8.18527 1.66604L3.92392 5.49238Z"/>
</symbol><symbol id="icon-tick" viewBox="0 0 28 20">
<path d="M25.7031 1.22028L10.1737 17.1104L2.29687 9.05063C1.99288 8.75024 1.50837 8.75875 1.2148 9.06981C0.9284 9.37324 0.9284 9.85432 1.2148 10.1578L9.63265 18.7712C9.93148 19.0769 10.4159 19.0769 10.7147 18.7712L26.7852 2.32749C27.0787 2.01643 27.0704 1.52067 26.7664 1.22028C26.4698 0.927226 25.9996 0.927226 25.7031 1.22028Z" stroke-width="0.2"/>
</symbol><symbol id="icon-whatsapp" viewBox="0 0 10 10">
<path fill-rule="evenodd" clip-rule="evenodd" d="M2.53745 8.49857C2.59531 8.48211 2.65596 8.47783 2.71556 8.48598C2.77516 8.49414 2.83242 8.51456 2.88373 8.54595C3.74803 9.06089 4.7707 9.24229 5.75938 9.05604C6.74806 8.86979 7.63462 8.32873 8.25232 7.53462C8.87002 6.7405 9.1763 5.74806 9.11354 4.74395C9.05078 3.73984 8.62331 2.79326 7.91154 2.08224C7.19976 1.37122 6.25272 0.944759 5.24855 0.883069C4.24437 0.821379 3.25226 1.12871 2.4588 1.74726C1.66534 2.3658 1.12522 3.25294 0.940028 4.24182C0.754832 5.2307 0.937323 6.25317 1.45318 7.11692C1.48446 7.16808 1.50478 7.22517 1.51286 7.28459C1.52095 7.34401 1.51661 7.40446 1.50013 7.46211C1.37905 7.89056 1.0869 8.9131 1.0869 8.9131C1.0869 8.9131 2.10944 8.62095 2.53745 8.49857ZM0.699749 7.55102C0.0782517 6.50337 -0.139413 5.26486 0.0876272 4.06808C0.314668 2.87129 0.970795 1.79855 1.9328 1.0513C2.89481 0.304052 4.09652 -0.0663094 5.31227 0.0097663C6.52802 0.085842 7.67418 0.603121 8.53553 1.46447C9.39688 2.32582 9.91416 3.47198 9.99023 4.68773C10.0663 5.90349 9.69595 7.10519 8.9487 8.0672C8.20144 9.0292 7.12871 9.68533 5.93192 9.91237C4.73514 10.1394 3.49663 9.92175 2.44898 9.30025C2.44898 9.30025 1.06277 9.69631 0.376292 9.8926C0.338999 9.90322 0.299548 9.90367 0.26202 9.89393C0.224491 9.88418 0.190248 9.86459 0.162831 9.83717C0.135414 9.80975 0.115819 9.77551 0.106073 9.73798C0.0963276 9.70045 0.0967847 9.661 0.107397 9.62371C0.303688 8.93723 0.699749 7.55102 0.699749 7.55102Z"/>
<path fill-rule="evenodd" clip-rule="evenodd" d="M2.60468 3.64915C2.67231 4.62251 3.08773 5.53909 3.7751 6.23157C4.46247 6.92404 5.37595 7.34624 6.34878 7.42107H6.34922C6.50454 7.43309 6.66063 7.41134 6.80674 7.3573C6.95286 7.30327 7.08555 7.21824 7.19568 7.10805L7.34741 6.95632C7.41904 6.88463 7.4593 6.78746 7.45936 6.68612V6.36397C7.45935 6.32358 7.4481 6.28399 7.42687 6.24963C7.40564 6.21527 7.37527 6.18749 7.33915 6.16942C7.11025 6.05508 6.61333 5.80661 6.36987 5.68488C6.32904 5.66447 6.28283 5.6574 6.23777 5.6647C6.19271 5.672 6.15109 5.69328 6.1188 5.72553C5.9975 5.84683 5.80577 6.03877 5.69708 6.14724C5.67179 6.17254 5.64064 6.19122 5.6064 6.20161C5.57216 6.21199 5.53589 6.21378 5.50079 6.2068L5.49884 6.20637C5.078 6.1222 4.69149 5.91535 4.38801 5.61187C4.08454 5.3084 3.87769 4.92189 3.79352 4.50105L3.79308 4.49909C3.78611 4.464 3.78789 4.42773 3.79828 4.39349C3.80867 4.35925 3.82734 4.3281 3.85264 4.3028C3.96111 4.19411 4.15306 4.00239 4.27435 3.88109C4.30661 3.84879 4.32789 3.80717 4.33519 3.76211C4.34248 3.71705 4.33542 3.67084 4.315 3.63002C4.19327 3.38656 3.94481 2.88963 3.83047 2.66074C3.81239 2.62462 3.78462 2.59424 3.75026 2.57301C3.7159 2.55178 3.67631 2.54054 3.63592 2.54053H3.36202C3.29698 2.54055 3.23267 2.55422 3.17325 2.58065C3.11383 2.60709 3.06061 2.6457 3.01705 2.694C2.97335 2.74269 2.92314 2.79834 2.87271 2.85442C2.7778 2.95975 2.70505 3.0831 2.65882 3.21714C2.61259 3.35117 2.59381 3.49314 2.6036 3.63458C2.60403 3.63937 2.60425 3.64415 2.60468 3.64915Z"/>
</symbol></svg>